<?xml version="1.0" encoding="UTF-8" standalone="no"?>
<!DOCTYPE svg PUBLIC "-//W3C//DTD SVG 1.1//EN" "http://www.w3.org/Graphics/SVG/1.1/DTD/svg11.dtd">
<svg xmlns="http://www.w3.org/2000/svg" version="1.1" viewBox="0.00 0.00 300.00 150.00">
<path stroke="#add991" stroke-width="2.00" fill="none" stroke-linecap="butt" vector-effect="non-scaling-stroke" d="
  M 44.21 95.54
  Q 41.94 96.14 39.73 95.51"
/>
<path fill="#ffffff" d="
  M 73.67 64.81
  A 0.11 0.11 0.0 0 0 73.75 64.94
  L 73.76 64.94
  A 0.11 0.11 0.0 0 0 73.90 64.86
  L 83.51 30.61
  A 1.66 1.65 -69.8 0 0 82.62 28.66
  L 79.75 27.32
  A 0.20 0.20 0.0 0 1 79.77 26.95
  L 108.37 18.32
  A 0.29 0.28 -86.0 0 1 108.71 18.72
  L 85.99 67.43
  A 0.54 0.53 11.8 0 1 85.50 67.75
  L 73.63 67.75
  A 0.90 0.88 76.2 0 1 72.84 67.26
  L 64.88 51.57
  A 1.41 1.39 37.2 0 1 64.75 50.67
  L 68.25 33.03
  A 0.11 0.10 15.6 0 0 68.18 32.91
  A 0.13 0.12 -78.6 0 0 68.05 33.00
  L 58.60 67.49
  A 0.68 0.66 -81.9 0 1 57.96 67.98
  L 50.41 67.98
  A 0.74 0.74 0.0 0 1 49.74 67.56
  L 37.13 41.04
  A 0.34 0.33 69.1 0 1 37.33 40.58
  L 49.69 36.85
  A 0.20 0.20 0.0 0 1 49.89 37.18
  L 48.64 38.42
  A 1.59 1.58 57.4 0 0 48.28 40.07
  L 57.34 64.76
  A 0.15 0.15 0.0 0 0 57.53 64.85
  L 57.54 64.85
  A 0.15 0.14 73.5 0 0 57.63 64.67
  L 53.07 47.96
  A 2.01 1.95 44.1 0 1 53.04 47.02
  L 55.25 35.85
  A 0.88 0.88 0.0 0 1 55.80 35.21
  L 68.18 30.67
  A 0.60 0.60 0.0 0 1 68.93 30.97
  L 76.90 47.74
  A 1.55 1.51 -52.6 0 1 77.02 48.73
  L 73.67 64.81
  Z"
/>
<path fill="#ffffff" d="
  M 232.70 41.88
  C 233.36 34.82 243.83 36.91 240.11 44.26
  Q 238.87 46.73 236.09 48.70
  A 0.17 0.17 0.0 0 1 235.86 48.45
  C 237.47 46.72 238.25 43.56 236.08 42.05
  Q 234.70 41.09 233.27 42.19
  A 0.35 0.35 0.0 0 1 232.70 41.88
  Z"
/>
<circle fill="#ffffff" cx="213.65" cy="44.25" r="3.74"/>
<path fill="#ffffff" d="
  M 123.22 52.38
  Q 123.41 52.17 123.89 51.34
  C 125.28 48.92 128.65 48.18 130.90 48.90
  C 135.83 50.49 137.43 56.88 135.99 61.49
  C 134.09 67.52 127.69 69.89 123.52 64.50
  A 0.34 0.34 0.0 0 1 123.85 63.96
  Q 127.20 64.61 128.43 61.19
  Q 130.24 56.17 127.04 52.84
  Q 125.07 50.80 123.15 52.97
  A 1.21 1.15 -25.3 0 0 122.85 53.75
  L 122.85 63.27
  A 1.10 0.98 60.1 0 1 122.76 63.70
  Q 120.16 69.32 114.74 67.01
  A 0.46 0.45 -56.0 0 1 114.60 66.27
  L 114.99 65.88
  A 1.02 0.98 68.2 0 0 115.28 65.17
  L 115.28 44.35
  A 0.15 0.14 -0.0 0 1 115.43 44.21
  L 122.79 44.21
  A 0.10 0.10 0.0 0 1 122.89 44.31
  L 122.89 52.25
  A 0.19 0.19 0.0 0 0 123.22 52.38
  Z"
/>
<rect fill="#ffffff" x="145.09" y="44.22" width="7.58" height="23.26" rx="0.27"/>
<path fill="#ffffff" d="
  M 165.12 56.01
  Q 165.08 59.06 164.87 59.94
  C 163.70 64.84 159.63 67.87 154.56 67.46
  A 0.20 0.19 -57.7 0 1 154.48 67.10
  C 158.61 64.68 157.51 61.10 157.59 55.89
  C 157.67 50.69 158.88 47.15 154.82 44.60
  A 0.20 0.19 59.4 0 1 154.91 44.24
  C 159.99 43.99 163.97 47.14 164.99 52.07
  Q 165.17 52.96 165.12 56.01
  Z"
/>
<path fill="#ffffff" d="
  M 102.96 48.61
  A 0.21 0.21 0.0 0 1 103.14 48.97
  L 101.98 50.12
  A 0.83 0.81 69.1 0 0 101.74 50.68
  C 101.62 56.04 100.95 61.04 106.05 63.00
  Q 110.07 64.55 113.21 61.46
  A 0.20 0.20 0.0 0 1 113.52 61.70
  Q 110.16 67.24 103.97 67.42
  C 92.34 67.75 90.73 50.70 102.96 48.61
  Z"
/>
<path fill="#ffffff" d="
  M 105.45 48.58
  Q 111.25 49.19 113.83 55.25
  A 0.49 0.49 0.0 0 1 113.38 55.93
  L 107.09 55.93
  A 0.54 0.54 0.0 0 1 106.56 55.28
  Q 106.68 54.69 106.64 51.67
  C 106.62 50.16 106.31 49.88 105.26 49.08
  A 0.28 0.28 0.0 0 1 105.45 48.58
  Z"
/>
<path fill="#ffffff" d="
  M 175.17 48.92
  L 174.01 50.08
  A 0.84 0.82 68.8 0 0 173.77 50.64
  C 173.67 56.02 173.02 61.04 178.14 62.99
  Q 182.18 64.53 185.32 61.41
  A 0.20 0.20 0.0 0 1 185.63 61.65
  Q 182.28 67.23 176.07 67.43
  C 164.40 67.81 162.72 50.71 174.98 48.56
  A 0.21 0.21 0.0 0 1 175.17 48.92
  Z"
/>
<path fill="#ffffff" d="
  M 177.24 49.08
  A 0.28 0.28 0.0 0 1 177.43 48.58
  Q 183.24 49.18 185.83 55.24
  A 0.49 0.49 0.0 0 1 185.38 55.92
  L 179.08 55.93
  A 0.54 0.54 0.0 0 1 178.55 55.28
  Q 178.67 54.69 178.63 51.67
  C 178.61 50.16 178.30 49.88 177.24 49.08
  Z"
/>
<path fill="#ffffff" d="
  M 204.26 53.11
  Q 202.13 49.85 198.21 48.69
  A 0.03 0.03 0.0 0 1 198.22 48.64
  L 203.87 48.64
  A 0.76 0.75 0.0 0 1 204.63 49.39
  L 204.63 53.00
  A 0.20 0.20 0.0 0 1 204.26 53.11
  Z"
/>
<path fill="#ffffff" d="
  M 228.27 58.07
  Q 228.26 64.58 228.33 65.45
  Q 228.38 66.04 229.55 67.12
  A 0.23 0.23 0.0 0 1 229.37 67.51
  C 224.50 66.95 220.73 62.94 220.74 58.06
  C 220.75 53.19 224.52 49.19 229.40 48.64
  A 0.23 0.23 0.0 0 1 229.57 49.03
  Q 228.40 50.11 228.35 50.70
  Q 228.27 51.57 228.27 58.07
  Z"
/>
<path fill="#ffffff" d="
  M 242.89 67.20
  Q 243.24 61.93 243.04 52.90
  Q 243.02 52.36 243.10 51.62
  Q 243.19 50.64 242.37 50.09
  A 0.50 0.49 52.5 0 1 242.48 49.21
  Q 248.40 47.18 250.41 52.39
  A 0.21 0.21 0.0 0 0 250.81 52.39
  C 252.06 49.17 255.39 47.85 258.55 49.08
  Q 262.56 50.65 262.45 55.75
  Q 262.31 62.61 262.63 67.25
  A 0.23 0.22 87.6 0 1 262.41 67.50
  L 255.00 67.50
  A 0.13 0.12 -90.0 0 1 254.88 67.37
  L 254.88 52.98
  A 1.34 1.33 -0.0 0 0 253.54 51.65
  L 252.92 51.65
  A 2.28 2.28 0.0 0 0 250.64 53.93
  L 250.64 67.34
  A 0.14 0.14 0.0 0 1 250.50 67.48
  L 243.16 67.48
  A 0.27 0.26 2.0 0 1 242.89 67.20
  Z"
/>
<path fill="#ffffff" d="
  M 199.81 68.26
  A 0.26 0.26 0.0 0 1 199.54 68.02
  L 199.54 68.01
  A 0.12 0.11 0.2 0 1 199.67 67.89
  Q 201.53 68.06 202.73 67.02
  Q 203.70 66.18 202.47 65.06
  Q 201.52 64.18 200.43 63.81
  Q 196.35 62.40 192.33 60.93
  C 184.13 57.94 185.41 50.28 193.78 48.83
  Q 193.99 48.79 194.08 48.82
  A 0.08 0.08 0.0 0 1 194.08 48.97
  Q 192.25 49.54 191.51 50.49
  A 0.76 0.75 -49.7 0 0 191.59 51.51
  Q 192.89 52.72 194.13 53.16
  C 198.79 54.83 203.22 56.04 206.29 58.85
  C 209.10 61.42 208.03 65.03 204.96 66.74
  Q 202.43 68.16 199.81 68.26
  Z"
/>
<path fill="#ffffff" d="
  M 240.71 57.97
  C 240.73 62.83 236.98 66.86 232.12 67.43
  A 0.23 0.23 0.0 0 1 231.94 67.04
  Q 233.11 65.96 233.15 65.37
  Q 233.22 64.50 233.19 58.00
  Q 233.16 51.51 233.09 50.64
  Q 233.03 50.05 231.86 48.98
  A 0.23 0.23 0.0 0 1 232.03 48.59
  C 236.90 49.12 240.68 53.11 240.71 57.97
  Z"
/>
<path fill="#ffffff" d="
  M 213.62 50.21
  Q 215.25 50.21 216.84 49.57
  A 0.40 0.39 79.3 0 1 217.38 49.94
  L 217.47 67.50
  A 0.07 0.07 0.0 0 1 217.33 67.53
  Q 217.31 67.48 213.64 67.49
  Q 209.97 67.49 209.95 67.53
  A 0.07 0.07 0.0 0 1 209.81 67.51
  L 209.87 49.95
  A 0.40 0.39 -79.4 0 1 210.41 49.58
  Q 212.00 50.21 213.62 50.21
  Z"
/>
<path fill="#ffffff" d="
  M 193.86 68.28
  Q 193.47 68.48 186.76 66.52
  A 0.75 0.74 -76.4 0 1 186.24 65.66
  L 186.90 62.31
  A 0.20 0.20 0.0 0 1 187.27 62.25
  Q 190.05 67.09 193.66 67.35
  A 0.50 0.49 33.1 0 1 193.86 68.28
  Z"
/>
<path fill="#ffffff" d="
  M 240.80 77.76
  A 0.33 0.33 0.0 0 1 240.21 77.66
  C 239.66 75.56 238.72 75.12 236.56 75.51
  Q 229.33 76.84 226.51 77.26
  C 219.19 78.35 216.80 69.86 222.84 66.02
  A 0.33 0.32 75.8 0 1 223.33 66.32
  Q 223.09 69.83 227.29 69.62
  Q 229.62 69.50 235.46 68.55
  C 242.03 67.49 244.32 72.68 240.80 77.76
  Z"
/>
<path fill="#ffffff" d="
  M 141.04 81.43
  L 141.04 77.82
  A 0.69 0.69 0.0 0 0 140.60 77.18
  Q 140.33 77.08 140.32 77.07
  A 0.57 0.57 0.0 0 1 140.42 76.16
  Q 141.08 75.77 141.10 75.02
  C 141.14 73.29 143.16 73.42 144.35 73.69
  A 0.39 0.39 0.0 0 1 144.51 74.38
  Q 143.91 74.86 142.85 74.87
  A 0.41 0.41 0.0 0 0 142.45 75.28
  L 142.45 75.55
  A 0.31 0.30 5.8 0 0 142.70 75.85
  L 144.03 76.11
  A 0.33 0.32 8.8 0 1 144.29 76.46
  Q 144.21 77.28 143.20 77.24
  A 0.61 0.60 0.9 0 0 142.57 77.84
  L 142.57 81.41
  A 0.62 0.62 0.0 0 1 141.95 82.03
  L 141.64 82.03
  A 0.60 0.60 0.0 0 1 141.04 81.43
  Z"
/>
<path fill="#ffffff" d="
  M 44.21 95.54
  Q 41.94 96.14 39.73 95.51
  L 39.63 88.12
  A 2.59 2.56 -63.9 0 0 39.12 86.61
  C 37.87 84.96 37.64 82.91 35.77 81.73
  C 32.87 79.90 29.26 80.98 26.19 82.37
  A 0.58 0.58 0.0 0 1 25.43 81.60
  Q 27.59 76.94 32.69 75.69
  A 1.61 1.41 34.7 0 1 33.04 75.65
  L 46.00 75.61
  A 4.30 4.19 55.8 0 1 47.66 75.95
  Q 48.98 76.52 49.95 76.58
  A 0.93 0.93 0.0 0 0 50.52 76.43
  Q 51.95 75.50 54.48 75.81
  A 0.68 0.67 3.3 0 1 55.08 76.48
  L 55.08 81.98
  A 0.70 0.70 0.0 0 1 54.38 82.68
  L 52.07 82.68
  A 1.17 1.17 0.0 0 1 51.15 82.23
  Q 50.60 81.51 49.55 81.39
  Q 44.33 80.79 44.36 85.99
  Q 44.38 90.74 44.21 95.54
  Z"
/>
<path fill="#ffffff" d="
  M 147.7677 75.8401
  A 3.17 2.99 -89.5 0 1 150.7299 79.0361
  A 3.17 2.99 -89.5 0 1 147.7123 82.1799
  A 3.17 2.99 -89.5 0 1 144.7501 78.9839
  A 3.17 2.99 -89.5 0 1 147.7677 75.8401
  Z
  M 147.7104 77.1600
  A 1.83 1.42 -90.3 0 0 146.3000 78.9974
  A 1.83 1.42 -90.3 0 0 147.7296 80.8200
  A 1.83 1.42 -90.3 0 0 149.1400 78.9826
  A 1.83 1.42 -90.3 0 0 147.7104 77.1600
  Z"
/>
<path fill="#ffffff" d="
  M 153.63 81.44
  A 0.53 0.53 0.0 0 1 153.10 81.97
  L 152.57 81.97
  A 0.48 0.48 0.0 0 1 152.09 81.49
  L 152.09 76.27
  A 0.26 0.26 0.0 0 1 152.47 76.04
  Q 153.39 76.53 155.20 75.95
  A 0.48 0.48 0.0 0 1 155.82 76.41
  L 155.82 76.75
  A 0.56 0.56 0.0 0 1 155.34 77.30
  Q 154.43 77.42 154.10 77.64
  Q 153.68 77.94 153.66 78.91
  Q 153.63 80.39 153.63 81.44
  Z"
/>
<path fill="#5bb223" d="
  M 100.76 97.65
  A 0.28 0.27 13.5 0 0 101.16 97.41
  L 101.16 93.09
  A 0.52 0.52 0.0 0 0 100.64 92.57
  L 99.97 92.57
  A 0.46 0.46 0.0 0 1 99.51 92.11
  L 99.51 88.75
  A 0.88 0.87 -90.0 0 1 100.38 87.87
  L 107.52 87.87
  A 0.99 0.99 0.0 0 1 108.51 88.86
  L 108.51 109.64
  A 0.65 0.65 0.0 0 0 109.16 110.29
  Q 109.35 110.29 109.49 110.30
  A 0.81 0.80 -88.1 0 1 110.24 111.11
  L 110.24 114.41
  A 0.62 0.62 0.0 0 1 109.62 115.03
  L 102.49 114.97
  A 1.15 1.14 -17.3 0 1 101.55 114.48
  Q 101.52 114.45 101.40 114.28
  A 0.54 0.54 0.0 0 0 100.71 114.11
  C 94.49 117.27 89.06 113.40 88.33 106.96
  C 87.51 99.77 93.87 94.18 100.76 97.65
  Z
  M 98.5140 101.2808
  A 4.48 2.57 -91.1 0 0 96.0305 105.8093
  A 4.48 2.57 -91.1 0 0 98.6860 110.2392
  A 4.48 2.57 -91.1 0 0 101.1695 105.7107
  A 4.48 2.57 -91.1 0 0 98.5140 101.2808
  Z"
/>
<path fill="#5bb223" d="
  M 236.43 110.29
  L 237.39 110.29
  A 0.30 0.30 0.0 0 0 237.69 109.99
  L 237.69 92.87
  A 0.30 0.30 0.0 0 0 237.39 92.57
  L 236.47 92.57
  A 0.30 0.30 0.0 0 1 236.17 92.27
  L 236.17 88.19
  A 0.30 0.30 0.0 0 1 236.47 87.89
  L 244.29 87.89
  A 0.30 0.30 0.0 0 1 244.59 88.19
  L 244.59 109.99
  A 0.30 0.30 0.0 0 0 244.89 110.29
  L 246.42 110.29
  A 0.30 0.30 0.0 0 1 246.72 110.59
  L 246.72 114.69
  A 0.30 0.30 0.0 0 1 246.42 114.99
  L 236.43 114.99
  A 0.30 0.30 0.0 0 1 236.13 114.69
  L 236.13 110.59
  A 0.30 0.30 0.0 0 1 236.43 110.29
  Z"
/>
<path fill="#5bb223" d="
  M 150.18 89.76
  Q 158.81 89.57 164.05 89.90
  C 168.14 90.15 171.08 92.41 171.31 96.85
  C 171.65 103.36 164.88 105.15 159.63 104.55
  A 0.48 0.48 0.0 0 0 159.09 105.03
  L 159.09 109.73
  A 0.51 0.50 90.0 0 0 159.59 110.24
  L 160.78 110.24
  A 0.53 0.53 0.0 0 1 161.31 110.77
  L 161.31 114.47
  A 0.54 0.53 -0.0 0 1 160.77 115.00
  L 150.23 115.00
  A 0.59 0.59 0.0 0 1 149.64 114.41
  L 149.64 110.96
  A 0.71 0.71 0.0 0 1 150.35 110.25
  L 150.94 110.25
  A 0.73 0.73 0.0 0 0 151.67 109.52
  L 151.67 95.17
  A 0.72 0.72 0.0 0 0 150.95 94.45
  L 150.21 94.45
  A 0.56 0.56 0.0 0 1 149.65 93.89
  L 149.65 90.31
  A 0.55 0.54 89.5 0 1 150.18 89.76
  Z
  M 159.10 94.85
  L 159.08 100.27
  A 0.42 0.42 0.0 0 0 159.49 100.69
  L 160.87 100.70
  A 3.32 2.90 0.3 0 0 164.21 97.81
  L 164.21 97.35
  A 3.32 2.90 0.3 0 0 160.91 94.44
  L 159.53 94.43
  A 0.42 0.42 0.0 0 0 159.10 94.85
  Z"
/>
<path fill="#5bb223" d="
  M 44.21 95.54
  Q 45.00 95.96 45.57 96.61
  A 1.27 1.22 -66.6 0 1 45.88 97.44
  L 45.88 113.51
  A 3.68 3.68 0.0 0 1 42.20 117.19
  L 41.58 117.19
  A 3.58 3.58 0.0 0 1 38.00 113.61
  L 38.00 97.32
  A 1.03 1.03 0.0 0 1 38.42 96.49
  L 39.73 95.51
  Q 41.94 96.14 44.21 95.54
  Z"
/>
<path fill="#5bb223" d="
  M 52.52 115.00
  A 0.39 0.39 0.0 0 1 52.13 114.61
  L 52.13 110.82
  A 0.48 0.47 3.7 0 1 52.67 110.35
  Q 52.91 110.39 53.01 110.38
  A 0.76 0.75 88.8 0 0 53.72 109.63
  L 53.73 102.23
  A 0.67 0.66 -86.0 0 0 53.16 101.57
  Q 53.02 101.55 52.66 101.59
  A 0.44 0.44 0.0 0 1 52.17 101.15
  L 52.17 97.37
  A 0.45 0.45 0.0 0 1 52.62 96.92
  L 58.26 96.92
  A 1.10 1.10 0.0 0 1 59.25 97.54
  L 59.76 98.62
  A 0.40 0.39 -42.9 0 0 60.46 98.64
  Q 62.08 95.85 65.45 96.10
  A 0.24 0.24 0.0 0 1 65.67 96.34
  L 65.67 102.36
  A 0.23 0.23 0.0 0 1 65.42 102.59
  C 60.36 102.22 60.37 105.90 60.57 109.53
  A 0.80 0.80 0.0 0 0 61.40 110.28
  Q 61.57 110.27 61.66 110.28
  A 0.80 0.80 0.0 0 1 62.39 111.07
  L 62.42 114.42
  A 0.58 0.58 0.0 0 1 61.84 115.00
  L 52.52 115.00
  Z"
/>
<path fill="#5bb223" d="
  M 69.36 102.53
  A 0.26 0.25 -24.5 0 1 68.99 102.40
  L 67.66 98.76
  A 0.32 0.32 0.0 0 1 67.78 98.38
  Q 73.16 94.90 79.15 96.34
  C 86.51 98.12 85.10 103.92 85.24 109.66
  A 0.76 0.75 89.2 0 0 85.99 110.40
  L 86.95 110.40
  A 0.45 0.44 -0.0 0 1 87.40 110.84
  L 87.40 114.50
  A 0.52 0.51 -0.0 0 1 86.88 115.01
  L 80.30 114.98
  A 1.27 1.26 -16.0 0 1 79.23 114.39
  Q 79.22 114.36 79.12 114.15
  A 0.58 0.58 0.0 0 0 78.23 113.95
  Q 74.48 116.98 70.14 114.82
  C 65.88 112.71 65.71 107.02 69.49 104.49
  Q 73.16 102.02 77.05 103.71
  A 0.77 0.77 0.0 0 0 77.93 102.49
  C 75.61 99.93 71.84 101.07 69.36 102.53
  Z
  M 77.9348 108.9142
  A 2.16 1.79 -6.8 0 0 75.5781 107.3926
  A 2.16 1.79 -6.8 0 0 73.6452 109.4258
  A 2.16 1.79 -6.8 0 0 76.0019 110.9474
  A 2.16 1.79 -6.8 0 0 77.9348 108.9142
  Z"
/>
<path fill="#5bb223" d="
  M 118.25 108.31
  C 119.31 111.78 123.74 110.93 126.37 109.40
  A 0.65 0.64 -36.9 0 1 127.14 109.50
  L 129.62 111.98
  A 0.57 0.57 0.0 0 1 129.55 112.84
  C 122.49 117.94 111.88 116.51 111.11 106.31
  C 110.09 92.89 132.81 93.13 129.63 107.23
  A 0.73 0.73 0.0 0 1 128.92 107.80
  L 118.63 107.80
  A 0.40 0.40 0.0 0 0 118.25 108.31
  Z
  M 118.64 104.17
  L 123.40 104.17
  A 0.25 0.25 0.0 0 0 123.65 103.92
  L 123.65 103.76
  A 2.52 2.43 -0.0 0 0 121.13 101.33
  L 120.91 101.33
  A 2.52 2.43 0.0 0 0 118.39 103.76
  L 118.39 103.92
  A 0.25 0.25 0.0 0 0 118.64 104.17
  Z"
/>
<path fill="#5bb223" d="
  M 138.71 108.36
  C 135.45 107.40 131.63 106.36 131.06 103.01
  C 129.94 96.41 138.49 94.82 142.34 98.56
  A 0.43 0.42 22.1 0 0 143.06 98.26
  L 143.06 97.50
  A 0.58 0.58 0.0 0 1 143.64 96.92
  L 147.16 96.92
  A 0.54 0.54 0.0 0 1 147.70 97.46
  L 147.70 102.94
  A 0.50 0.50 0.0 0 1 147.20 103.44
  L 143.67 103.44
  A 0.87 0.86 -15.0 0 1 142.92 103.01
  Q 141.44 100.54 138.56 100.99
  A 1.01 1.01 0.0 0 0 138.17 102.82
  Q 138.62 103.12 140.05 103.54
  C 143.31 104.50 147.13 105.55 147.69 108.90
  C 148.81 115.50 140.26 117.09 136.41 113.35
  A 0.43 0.42 22.1 0 0 135.69 113.65
  L 135.69 114.41
  A 0.58 0.58 0.0 0 1 135.11 114.99
  L 131.59 114.99
  A 0.54 0.54 0.0 0 1 131.05 114.45
  L 131.05 108.97
  A 0.50 0.50 0.0 0 1 131.55 108.47
  L 135.08 108.47
  A 0.87 0.86 -15.0 0 1 135.83 108.90
  Q 137.31 111.37 140.19 110.92
  A 1.01 1.01 0.0 0 0 140.59 109.08
  Q 140.13 108.78 138.71 108.36
  Z"
/>
<path fill="#5bb223" d="
  M 179.64 107.81
  A 0.40 0.40 0.0 0 0 179.26 108.32
  C 180.32 111.79 184.75 110.93 187.38 109.39
  A 0.65 0.64 -37.0 0 1 188.15 109.49
  L 190.63 111.97
  A 0.57 0.57 0.0 0 1 190.56 112.83
  C 183.51 117.94 172.90 116.53 172.11 106.33
  C 171.07 92.92 193.78 93.11 190.63 107.22
  A 0.73 0.73 0.0 0 1 189.92 107.79
  L 179.64 107.81
  Z
  M 179.64 104.17
  L 184.40 104.17
  A 0.25 0.25 0.0 0 0 184.65 103.92
  L 184.65 103.76
  A 2.52 2.43 0.1 0 0 182.13 101.33
  L 181.91 101.33
  A 2.52 2.43 0.1 0 0 179.39 103.76
  L 179.39 103.92
  A 0.25 0.25 0.0 0 0 179.64 104.17
  Z"
/>
<path fill="#5bb223" d="
  M 191.8388 105.5887
  A 10.06 9.55 -177.6 0 1 202.2899 96.4684
  A 10.06 9.55 -177.6 0 1 211.9412 106.4313
  A 10.06 9.55 -177.6 0 1 201.4901 115.5516
  A 10.06 9.55 -177.6 0 1 191.8388 105.5887
  Z
  M 201.8293 101.1903
  A 4.84 2.55 -90.6 0 0 199.3301 106.0567
  A 4.84 2.55 -90.6 0 0 201.9307 110.8697
  A 4.84 2.55 -90.6 0 0 204.4299 106.0033
  A 4.84 2.55 -90.6 0 0 201.8293 101.1903
  Z"
/>
<path fill="#5bb223" d="
  M 255.01 107.81
  A 0.40 0.40 0.0 0 0 254.63 108.32
  C 255.70 111.78 260.13 110.93 262.75 109.39
  A 0.65 0.64 -37.0 0 1 263.52 109.49
  L 266.01 111.97
  A 0.57 0.57 0.0 0 1 265.94 112.83
  C 258.89 117.94 248.28 116.52 247.49 106.33
  C 246.45 92.91 269.16 93.12 266.01 107.22
  A 0.73 0.73 0.0 0 1 265.30 107.79
  L 255.01 107.81
  Z
  M 255.04 104.20
  L 259.74 104.16
  A 0.27 0.27 0.0 0 0 260.01 103.89
  L 260.01 103.70
  A 2.50 2.40 -0.4 0 0 257.49 101.32
  L 257.25 101.32
  A 2.50 2.40 -0.4 0 0 254.77 103.74
  L 254.77 103.93
  A 0.27 0.27 0.0 0 0 255.04 104.20
  Z"
/>
<path fill="#5bb223" d="
  M 221.98 114.95
  L 221.98 117.02
  A 0.64 0.64 0.0 0 0 222.62 117.66
  L 223.61 117.66
  A 0.35 0.35 0.0 0 1 223.96 118.01
  L 223.96 121.96
  A 0.43 0.42 -90.0 0 1 223.54 122.39
  L 213.57 122.39
  A 0.43 0.43 0.0 0 1 213.14 121.96
  L 213.14 118.12
  A 0.48 0.48 0.0 0 1 213.62 117.64
  L 214.00 117.64
  A 0.67 0.67 0.0 0 0 214.67 116.97
  L 214.66 102.44
  A 0.71 0.70 -86.8 0 0 214.04 101.74
  Q 214.01 101.73 213.69 101.74
  A 0.53 0.53 0.0 0 1 213.14 101.21
  L 213.14 97.53
  A 0.61 0.61 0.0 0 1 213.75 96.92
  L 220.77 96.92
  A 1.03 1.01 67.2 0 1 221.49 97.22
  L 222.02 97.75
  A 0.52 0.51 51.1 0 0 222.65 97.82
  Q 225.93 95.81 229.58 97.22
  C 236.70 99.99 236.94 112.40 229.26 114.98
  Q 226.08 116.04 222.74 114.47
  A 0.53 0.53 0.0 0 0 221.98 114.95
  Z
  M 224.4860 101.7310
  A 4.49 2.57 -91.2 0 0 222.0106 106.2738
  A 4.49 2.57 -91.2 0 0 224.6740 110.7090
  A 4.49 2.57 -91.2 0 0 227.1494 106.1662
  A 4.49 2.57 -91.2 0 0 224.4860 101.7310
  Z"
/>
</svg>
