<?xml version="1.0" encoding="UTF-8" standalone="no"?>
<!DOCTYPE svg PUBLIC "-//W3C//DTD SVG 1.1//EN" "http://www.w3.org/Graphics/SVG/1.1/DTD/svg11.dtd">
<svg xmlns="http://www.w3.org/2000/svg" version="1.1" viewBox="0.00 0.00 300.00 150.00">
<path stroke="#4b7931" stroke-width="2.00" fill="none" stroke-linecap="butt" vector-effect="non-scaling-stroke" d="
  M 44.26 95.73
  L 38.80 95.80"
/>
<path fill="#3b3f3f" d="
  M 73.67 64.77
  A 0.13 0.13 0.0 0 0 73.77 64.92
  A 0.12 0.12 0.0 0 0 73.91 64.83
  L 83.54 30.53
  Q 83.55 30.48 83.56 30.43
  Q 83.84 28.58 79.98 27.54
  A 0.34 0.34 0.0 0 1 79.97 26.89
  L 108.45 18.30
  A 0.25 0.25 0.0 0 1 108.75 18.64
  L 86.01 67.39
  A 0.62 0.61 11.8 0 1 85.45 67.75
  L 73.59 67.75
  A 0.83 0.82 76.3 0 1 72.86 67.30
  L 64.89 51.61
  A 1.40 1.40 0.0 0 1 64.77 50.75
  L 68.10 33.42
  A 0.04 0.04 0.0 0 0 68.03 33.39
  Q 68.00 33.41 67.97 33.43
  A 0.23 0.11 -82.4 0 0 67.89 33.55
  L 58.61 67.45
  A 0.73 0.71 7.2 0 1 57.91 67.98
  L 50.47 67.98
  A 0.83 0.81 -12.3 0 1 49.72 67.51
  L 37.18 41.14
  A 0.43 0.43 0.0 0 1 37.45 40.55
  L 49.68 36.85
  A 0.16 0.16 0.0 0 1 49.84 37.11
  C 48.61 38.37 47.91 39.12 48.65 41.11
  Q 53.33 53.72 57.28 64.65
  A 0.19 0.19 0.0 0 0 57.52 64.76
  L 57.53 64.76
  A 0.17 0.16 73.6 0 0 57.63 64.57
  L 53.12 48.15
  A 2.53 2.42 43.7 0 1 53.07 47.01
  L 55.21 35.89
  A 1.00 0.98 85.8 0 1 55.84 35.15
  L 68.29 30.67
  A 0.49 0.49 0.0 0 1 68.90 30.92
  L 76.89 47.71
  A 1.64 1.61 -52.2 0 1 77.01 48.76
  L 73.67 64.77
  Z"
/>
<path fill="#3b3f3f" d="
  M 232.81 42.22
  A 0.25 0.24 75.8 0 1 232.43 41.99
  Q 232.92 38.14 236.16 37.62
  Q 238.58 37.22 239.89 39.05
  C 242.25 42.34 238.59 46.73 235.95 48.67
  A 0.17 0.16 -38.6 0 1 235.72 48.65
  L 235.71 48.64
  A 0.22 0.21 46.1 0 1 235.71 48.35
  C 237.25 46.71 237.92 43.72 236.03 42.16
  Q 234.61 41.00 232.81 42.22
  Z"
/>
<circle fill="#3b3f3f" cx="213.27" cy="44.25" r="3.72"/>
<path fill="#3b3f3f" d="
  M 114.31 66.19
  L 114.61 65.89
  A 1.04 1.02 67.9 0 0 114.91 65.16
  L 114.91 44.41
  A 0.18 0.18 0.0 0 1 115.09 44.23
  L 122.31 44.23
  A 0.23 0.23 0.0 0 1 122.54 44.46
  L 122.42 63.26
  A 1.80 1.65 61.0 0 1 122.25 63.97
  Q 119.59 69.25 114.46 67.00
  A 0.50 0.50 0.0 0 1 114.31 66.19
  Z"
/>
<rect fill="#3b3f3f" x="-3.78" y="-11.62" transform="translate(148.51,55.87) rotate(-0.1)" width="7.56" height="23.24" rx="0.27"/>
<path fill="#3b3f3f" d="
  M 164.72 55.99
  Q 164.68 58.84 164.66 58.98
  Q 163.29 67.23 154.17 67.61
  A 0.27 0.27 0.0 0 1 154.08 67.08
  C 158.06 65.82 157.14 60.49 157.20 55.89
  C 157.27 51.29 158.33 45.99 154.39 44.62
  A 0.27 0.27 0.0 0 1 154.49 44.09
  Q 163.60 44.72 164.74 53.00
  Q 164.76 53.14 164.72 55.99
  Z"
/>
<path fill="#3b3f3f" d="
  M 102.73 49.01
  Q 101.48 50.27 101.47 50.73
  C 101.39 55.42 100.67 60.58 105.16 62.74
  Q 109.45 64.80 113.12 61.45
  A 0.16 0.16 0.0 0 1 113.36 61.65
  Q 109.94 67.11 104.07 67.41
  C 92.03 68.03 90.61 50.20 102.56 48.67
  A 0.20 0.20 0.0 0 1 102.73 49.01
  Z"
/>
<path fill="#3b3f3f" d="
  M 106.33 55.42
  Q 106.67 52.89 106.33 50.79
  Q 106.13 49.61 105.75 49.59
  Q 105.28 49.56 105.09 49.32
  A 0.42 0.42 0.0 0 1 105.46 48.64
  C 109.25 48.97 112.43 51.82 113.62 55.40
  A 0.43 0.43 0.0 0 1 113.21 55.97
  L 106.81 55.97
  A 0.49 0.48 -86.3 0 1 106.33 55.42
  Z"
/>
<path fill="#3b3f3f" d="
  M 204.09 52.95
  Q 201.81 50.06 198.14 48.63
  Q 200.84 48.64 203.53 48.76
  A 0.88 0.87 1.4 0 1 204.37 49.63
  L 204.37 52.85
  A 0.16 0.16 0.0 0 1 204.09 52.95
  Z"
/>
<path fill="#3b3f3f" d="
  M 231.63 48.60
  C 242.95 49.53 243.41 65.13 232.17 67.44
  A 0.34 0.34 0.0 0 1 231.86 66.86
  L 232.47 66.25
  A 1.60 1.57 67.9 0 0 232.93 65.13
  Q 232.94 62.24 232.95 51.63
  C 232.95 50.26 232.62 49.77 231.49 48.98
  A 0.21 0.21 0.0 0 1 231.63 48.60
  Z"
/>
<path fill="#3b3f3f" d="
  M 136.14 58.04
  C 136.15 65.17 128.79 71.67 123.20 64.42
  A 0.28 0.28 0.0 0 1 123.48 63.97
  Q 126.83 64.72 128.17 61.12
  Q 128.67 59.77 128.67 58.05
  Q 128.66 56.33 128.16 54.99
  Q 126.81 51.39 123.46 52.15
  A 0.28 0.28 0.0 0 1 123.18 51.71
  C 128.75 44.44 136.13 50.91 136.14 58.04
  Z"
/>
<path fill="#3b3f3f" d="
  M 174.41 48.70
  A 0.20 0.20 0.0 0 1 174.58 49.04
  Q 173.34 50.30 173.33 50.76
  C 173.26 55.44 172.54 60.59 177.03 62.74
  Q 181.32 64.79 184.98 61.44
  A 0.16 0.16 0.0 0 1 185.22 61.64
  Q 181.81 67.10 175.95 67.41
  C 163.93 68.04 162.48 50.24 174.41 48.70
  Z"
/>
<path fill="#3b3f3f" d="
  M 178.06 55.31
  Q 178.41 52.81 178.08 50.73
  Q 177.89 49.56 177.51 49.54
  Q 177.05 49.51 176.86 49.27
  A 0.42 0.42 0.0 0 1 177.23 48.60
  C 180.98 48.95 184.11 51.78 185.27 55.33
  A 0.43 0.42 -9.3 0 1 184.86 55.89
  L 178.53 55.86
  A 0.48 0.48 0.0 0 1 178.06 55.31
  Z"
/>
<path fill="#3b3f3f" d="
  M 200.46 67.95
  Q 202.13 67.54 202.45 67.09
  A 1.77 1.76 28.2 0 0 201.63 64.40
  Q 193.09 61.27 191.45 60.63
  C 183.38 57.45 186.19 49.23 194.01 48.82
  A 0.02 0.02 0.0 0 1 194.02 48.86
  L 191.78 49.93
  A 1.07 1.07 0.0 0 0 191.44 51.61
  Q 192.40 52.68 193.79 53.15
  Q 202.02 55.90 205.40 58.28
  C 208.42 60.42 208.33 63.99 205.42 66.24
  Q 203.35 67.85 200.46 67.95
  Z"
/>
<path fill="#3b3f3f" d="
  M 227.96 58.09
  Q 227.97 61.31 227.99 64.50
  Q 227.99 66.00 229.25 67.09
  A 0.21 0.20 -21.6 0 1 229.09 67.45
  C 224.22 66.97 220.54 62.92 220.53 58.11
  C 220.51 53.29 224.18 49.22 229.05 48.72
  A 0.21 0.20 21.4 0 1 229.21 49.08
  Q 227.95 50.17 227.95 51.68
  Q 227.95 54.87 227.96 58.09
  Z"
/>
<path fill="#3b3f3f" d="
  M 242.81 67.31
  L 242.81 50.94
  A 0.67 0.67 0.0 0 0 242.42 50.33
  L 242.14 50.20
  A 0.45 0.45 0.0 0 1 242.12 49.39
  C 245.74 47.52 248.32 49.06 250.25 52.19
  A 0.81 0.80 -61.8 0 1 250.38 52.63
  L 250.38 67.32
  A 0.18 0.18 0.0 0 1 250.20 67.50
  L 243.00 67.50
  A 0.19 0.19 0.0 0 1 242.81 67.31
  Z"
/>
<path fill="#3b3f3f" d="
  M 251.04 52.31
  A 0.24 0.23 86.2 0 1 250.70 52.01
  C 253.96 45.60 262.39 48.84 262.21 55.75
  Q 262.04 62.10 262.38 67.23
  A 0.25 0.25 0.0 0 1 262.13 67.50
  L 254.82 67.50
  A 0.18 0.17 90.0 0 1 254.65 67.32
  L 254.65 52.80
  A 1.16 1.16 0.0 0 0 254.11 51.82
  Q 252.84 51.05 251.04 52.31
  Z"
/>
<path fill="#3b3f3f" d="
  M 213.27 50.25
  Q 214.86 50.24 216.51 49.63
  A 0.40 0.40 0.0 0 1 217.05 50.00
  L 217.05 67.06
  A 0.40 0.40 0.0 0 1 216.66 67.46
  Q 216.04 67.47 213.29 67.48
  Q 210.54 67.48 209.92 67.47
  A 0.40 0.40 0.0 0 1 209.53 67.07
  L 209.49 50.01
  A 0.40 0.40 0.0 0 1 210.03 49.64
  Q 211.68 50.25 213.27 50.25
  Z"
/>
<path fill="#3b3f3f" d="
  M 193.85 68.51
  Q 193.80 68.56 186.52 66.50
  A 0.72 0.71 -77.2 0 1 186.01 65.68
  L 186.65 62.36
  A 0.20 0.20 0.0 0 1 187.02 62.29
  Q 189.98 67.25 193.40 67.36
  A 0.67 0.67 0.0 0 1 193.85 68.51
  Z"
/>
<path fill="#3b3f3f" d="
  M 239.79 77.54
  Q 239.50 74.83 236.30 75.48
  C 234.83 75.78 225.18 78.19 222.47 76.82
  C 217.60 74.38 218.48 68.75 222.48 66.06
  A 0.32 0.32 0.0 0 1 222.98 66.32
  Q 222.98 69.87 227.03 69.65
  Q 228.51 69.57 235.69 68.52
  C 241.88 67.62 244.20 73.43 240.43 77.74
  A 0.37 0.37 0.0 0 1 239.79 77.54
  Z"
/>
<path fill="#3b3f3f" d="
  M 200.46 67.95
  Q 200.32 68.13 200.09 68.17
  A 0.10 0.10 0.0 0 1 200.05 67.98
  Q 200.24 67.94 200.46 67.95
  Z"
/>
<path fill="#3b3f3f" d="
  M 142.55 81.43
  A 0.54 0.54 0.0 0 1 142.01 81.97
  L 141.45 81.97
  A 0.41 0.40 90.0 0 1 141.05 81.56
  L 141.05 77.98
  A 0.89 0.89 0.0 0 0 140.62 77.22
  Q 140.43 77.10 140.38 77.06
  A 0.53 0.53 0.0 0 1 140.39 76.21
  Q 140.79 75.93 140.85 75.83
  Q 141.07 75.45 141.06 75.18
  C 141.02 73.34 143.28 73.28 144.44 73.79
  A 0.37 0.37 0.0 0 1 144.39 74.48
  L 142.84 74.94
  A 0.49 0.49 0.0 0 0 142.80 75.86
  Q 143.14 76.00 143.84 76.17
  A 0.52 0.52 0.0 0 1 144.14 76.98
  Q 143.97 77.22 143.05 77.26
  A 0.52 0.52 0.0 0 0 142.55 77.78
  L 142.55 81.43
  Z"
/>
<path fill="#3b3f3f" d="
  M 44.26 95.73
  L 38.80 95.80
  Q 40.29 92.21 39.64 87.74
  A 2.21 2.12 22.7 0 0 39.17 86.66
  C 37.98 85.19 37.70 83.18 36.19 82.02
  C 33.29 79.80 29.52 80.92 26.21 82.34
  A 0.62 0.62 0.0 0 1 25.42 81.48
  Q 28.61 75.47 35.20 75.57
  Q 43.96 75.71 45.61 75.60
  C 47.46 75.48 49.22 77.18 50.93 76.23
  Q 52.44 75.41 54.49 75.84
  A 0.75 0.75 0.0 0 1 55.08 76.57
  L 55.08 81.89
  A 0.68 0.67 -7.2 0 1 54.57 82.54
  Q 51.78 83.21 50.73 81.89
  A 1.39 1.37 -16.5 0 0 49.76 81.37
  C 45.92 80.99 44.36 82.47 44.33 86.46
  Q 44.29 91.07 44.26 95.73
  Z"
/>
<path fill="#3b3f3f" d="
  M 147.7520 75.8601
  A 3.15 2.97 -89.6 0 1 150.6999 79.0307
  A 3.15 2.97 -89.6 0 1 147.7080 82.1599
  A 3.15 2.97 -89.6 0 1 144.7601 78.9893
  A 3.15 2.97 -89.6 0 1 147.7520 75.8601
  Z
  M 147.7817 77.1607
  A 1.85 1.43 -88.4 0 0 146.3006 78.9701
  A 1.85 1.43 -88.4 0 0 147.6783 80.8593
  A 1.85 1.43 -88.4 0 0 149.1594 79.0499
  A 1.85 1.43 -88.4 0 0 147.7817 77.1607
  Z"
/>
<path fill="#3b3f3f" d="
  M 153.60 81.48
  A 0.49 0.48 -0.0 0 1 153.11 81.96
  L 152.49 81.96
  A 0.39 0.39 0.0 0 1 152.10 81.57
  L 152.10 76.35
  A 0.29 0.29 0.0 0 1 152.52 76.09
  Q 153.47 76.56 155.23 76.01
  A 0.47 0.47 0.0 0 1 155.85 76.46
  L 155.85 76.76
  A 0.54 0.54 0.0 0 1 155.30 77.30
  Q 153.68 77.28 153.66 78.73
  Q 153.62 80.49 153.60 81.48
  Z"
/>
<path fill="#5bb223" d="
  M 101.22 97.72
  A 0.24 0.24 0.0 0 0 101.57 97.51
  L 101.57 93.05
  A 0.41 0.40 0.0 0 0 101.16 92.65
  L 100.56 92.65
  A 0.69 0.68 90.0 0 1 99.88 91.96
  L 99.88 88.73
  A 0.86 0.85 90.0 0 1 100.73 87.87
  L 108.02 87.87
  A 0.87 0.87 0.0 0 1 108.89 88.74
  L 108.89 109.83
  A 0.51 0.51 0.0 0 0 109.36 110.34
  Q 109.84 110.38 110.03 110.35
  A 0.52 0.52 0.0 0 1 110.63 110.86
  L 110.64 114.47
  A 0.53 0.53 0.0 0 1 110.11 115.00
  L 102.60 115.00
  A 0.77 0.75 78.0 0 1 101.91 114.54
  Q 101.83 114.36 101.78 114.28
  A 0.61 0.61 0.0 0 0 101.02 114.11
  C 94.70 117.42 89.03 112.99 88.70 106.48
  C 88.33 99.29 94.50 94.22 101.22 97.72
  Z
  M 98.8762 101.2810
  A 4.48 2.57 -91.2 0 0 96.4006 105.8138
  A 4.48 2.57 -91.2 0 0 99.0638 110.2390
  A 4.48 2.57 -91.2 0 0 101.5394 105.7062
  A 4.48 2.57 -91.2 0 0 98.8762 101.2810
  Z"
/>
<path fill="#5bb223" d="
  M 236.39 114.66
  L 236.39 110.63
  A 0.33 0.33 0.0 0 1 236.72 110.30
  L 237.62 110.30
  A 0.33 0.33 0.0 0 0 237.95 109.97
  L 237.95 92.84
  A 0.33 0.33 0.0 0 0 237.62 92.51
  L 236.75 92.51
  A 0.33 0.33 0.0 0 1 236.42 92.18
  L 236.42 88.22
  A 0.33 0.33 0.0 0 1 236.75 87.89
  L 244.51 87.89
  A 0.33 0.33 0.0 0 1 244.84 88.22
  L 244.84 109.94
  A 0.33 0.33 0.0 0 0 245.17 110.27
  L 246.62 110.27
  A 0.33 0.33 0.0 0 1 246.95 110.60
  L 246.95 114.66
  A 0.33 0.33 0.0 0 1 246.62 114.99
  L 236.72 114.99
  A 0.33 0.33 0.0 0 1 236.39 114.66
  Z"
/>
<path fill="#5bb223" d="
  M 150.39 115.00
  A 0.49 0.49 0.0 0 1 149.90 114.51
  L 149.90 110.70
  A 0.48 0.48 0.0 0 1 150.38 110.22
  L 151.30 110.22
  A 0.63 0.62 -90.0 0 0 151.92 109.59
  L 151.92 94.96
  A 0.52 0.52 0.0 0 0 151.42 94.44
  Q 150.75 94.42 150.60 94.45
  A 0.56 0.56 0.0 0 1 149.91 93.91
  L 149.90 90.32
  A 0.60 0.60 0.0 0 1 150.51 89.71
  Q 160.81 89.73 162.99 89.77
  C 167.91 89.86 171.62 92.06 171.58 97.48
  C 171.53 103.56 164.69 105.09 159.88 104.61
  A 0.49 0.49 0.0 0 0 159.34 105.10
  L 159.34 109.77
  A 0.46 0.46 0.0 0 0 159.80 110.23
  L 161.04 110.23
  A 0.53 0.52 -90.0 0 1 161.56 110.76
  L 161.56 114.45
  A 0.55 0.54 -90.0 0 1 161.02 115.00
  L 150.39 115.00
  Z
  M 159.35 94.86
  L 159.35 100.28
  A 0.42 0.42 0.0 0 0 159.76 100.70
  L 161.18 100.70
  A 3.28 2.94 0.1 0 0 164.47 97.76
  L 164.47 97.38
  A 3.28 2.94 0.1 0 0 161.20 94.44
  L 159.78 94.44
  A 0.42 0.42 0.0 0 0 159.35 94.86
  Z"
/>
<path fill="#5bb223" d="
  M 38.80 95.80
  L 44.26 95.73
  Q 45.85 96.17 45.86 98.02
  Q 45.92 107.65 45.85 114.17
  A 2.65 2.64 80.2 0 1 44.13 116.62
  Q 40.16 118.08 38.34 115.29
  A 2.17 2.09 28.0 0 1 38.00 114.25
  Q 37.44 104.39 38.80 95.80
  Z"
/>
<path fill="#5bb223" d="
  M 60.90 98.53
  C 62.00 97.06 62.82 96.32 64.85 96.04
  A 1.09 1.08 86.1 0 1 66.08 97.12
  L 66.08 101.80
  A 0.89 0.88 -82.9 0 1 64.98 102.66
  Q 63.92 102.39 62.12 103.48
  A 1.75 1.69 -8.5 0 0 61.34 104.50
  Q 60.74 106.64 60.95 109.57
  A 0.81 0.80 87.7 0 0 61.75 110.31
  L 62.32 110.31
  A 0.48 0.48 0.0 0 1 62.80 110.79
  L 62.80 114.52
  A 0.47 0.47 0.0 0 1 62.33 114.99
  L 52.97 114.99
  A 0.45 0.44 0.0 0 1 52.52 114.55
  L 52.52 110.80
  A 0.47 0.46 0.0 0 1 52.99 110.34
  L 53.31 110.34
  A 0.80 0.80 0.0 0 0 54.11 109.54
  L 54.11 102.26
  A 0.69 0.69 0.0 0 0 53.59 101.59
  Q 53.35 101.52 53.10 101.54
  A 0.49 0.49 0.0 0 1 52.56 101.05
  L 52.56 97.42
  A 0.51 0.50 -0.0 0 1 53.07 96.92
  L 58.78 96.92
  A 0.92 0.91 77.0 0 1 59.60 97.44
  L 60.08 98.45
  A 0.48 0.48 0.0 0 0 60.90 98.53
  Z"
/>
<path fill="#5bb223" d="
  M 78.60 113.89
  C 73.69 117.90 65.42 114.67 67.39 107.63
  C 68.52 103.55 74.01 102.08 77.28 103.76
  A 0.73 0.73 0.0 0 0 78.22 102.70
  C 76.25 99.79 71.84 101.14 69.58 102.55
  A 0.23 0.22 -25.7 0 1 69.25 102.44
  L 67.91 98.73
  A 0.32 0.30 -27.8 0 1 68.03 98.37
  C 73.98 94.48 85.60 94.48 85.49 104.22
  Q 85.44 109.03 85.46 109.73
  A 0.69 0.68 -0.4 0 0 86.15 110.40
  L 87.18 110.40
  A 0.48 0.48 0.0 0 1 87.66 110.88
  L 87.66 114.51
  A 0.49 0.49 0.0 0 1 87.17 115.00
  L 80.50 114.99
  A 1.09 1.08 79.3 0 1 79.49 114.30
  Q 79.48 114.26 79.45 114.16
  A 0.53 0.53 0.0 0 0 78.60 113.89
  Z
  M 78.1886 108.9480
  A 2.16 1.79 -5.9 0 0 75.8560 107.3895
  A 2.16 1.79 -5.9 0 0 73.8914 109.3920
  A 2.16 1.79 -5.9 0 0 76.2240 110.9505
  A 2.16 1.79 -5.9 0 0 78.1886 108.9480
  Z"
/>
<path fill="#5bb223" d="
  M 118.46 108.33
  C 119.97 111.73 123.91 111.05 126.62 109.42
  A 0.66 0.65 -37.5 0 1 127.43 109.52
  L 129.84 111.92
  A 0.65 0.65 0.0 0 1 129.75 112.90
  C 122.48 118.06 112.03 116.35 111.34 106.07
  C 110.48 93.38 132.53 92.67 129.90 107.17
  A 0.76 0.76 0.0 0 1 129.15 107.80
  L 118.80 107.80
  A 0.38 0.37 77.8 0 0 118.46 108.33
  Z
  M 118.87 104.21
  L 123.67 104.15
  A 0.23 0.23 0.0 0 0 123.89 103.92
  L 123.89 103.78
  A 2.47 2.42 89.3 0 0 121.44 101.34
  L 121.02 101.34
  A 2.47 2.42 89.3 0 0 118.63 103.84
  L 118.63 103.98
  A 0.23 0.23 0.0 0 0 118.87 104.21
  Z"
/>
<path fill="#5bb223" d="
  M 138.98 108.32
  Q 134.09 106.91 132.95 105.69
  C 130.02 102.57 131.10 98.47 135.05 97.00
  Q 139.27 95.43 142.83 98.56
  A 0.37 0.37 0.0 0 0 143.45 98.28
  L 143.45 97.45
  A 0.53 0.53 0.0 0 1 143.98 96.92
  L 147.62 96.92
  A 0.46 0.46 0.0 0 1 148.08 97.38
  L 148.08 102.96
  A 0.47 0.47 0.0 0 1 147.61 103.43
  L 144.12 103.43
  A 0.92 0.92 0.0 0 1 143.34 103.00
  Q 141.76 100.52 138.91 100.97
  A 0.98 0.98 0.0 0 0 138.50 102.75
  Q 139.11 103.17 140.53 103.58
  Q 145.42 104.99 146.56 106.21
  C 149.49 109.33 148.41 113.43 144.46 114.90
  Q 140.24 116.47 136.68 113.34
  A 0.37 0.37 0.0 0 0 136.06 113.62
  L 136.06 114.45
  A 0.53 0.53 0.0 0 1 135.53 114.98
  L 131.89 114.98
  A 0.46 0.46 0.0 0 1 131.43 114.52
  L 131.43 108.94
  A 0.47 0.47 0.0 0 1 131.90 108.47
  L 135.39 108.47
  A 0.92 0.92 0.0 0 1 136.17 108.90
  Q 137.75 111.38 140.60 110.93
  A 0.98 0.98 0.0 0 0 141.00 109.15
  Q 140.40 108.73 138.98 108.32
  Z"
/>
<path fill="#5bb223" d="
  M 179.80 107.81
  A 0.38 0.37 77.7 0 0 179.47 108.34
  C 180.98 111.73 184.92 111.05 187.63 109.41
  A 0.66 0.65 -37.6 0 1 188.44 109.51
  L 190.85 111.91
  A 0.65 0.64 -40.0 0 1 190.76 112.89
  C 183.50 118.06 173.05 116.37 172.34 106.09
  C 171.46 93.41 193.50 92.66 190.90 107.16
  A 0.76 0.76 0.0 0 1 190.15 107.79
  L 179.80 107.81
  Z
  M 179.87 104.21
  L 184.66 104.15
  A 0.23 0.23 0.0 0 0 184.89 103.92
  L 184.89 103.78
  A 2.47 2.42 89.4 0 0 182.45 101.34
  L 182.03 101.34
  A 2.47 2.42 89.4 0 0 179.63 103.84
  L 179.63 103.98
  A 0.23 0.23 0.0 0 0 179.87 104.21
  Z"
/>
<path fill="#5bb223" d="
  M 192.0881 105.6063
  A 10.06 9.55 -177.7 0 1 202.5233 96.4677
  A 10.06 9.55 -177.7 0 1 212.1919 106.4137
  A 10.06 9.55 -177.7 0 1 201.7567 115.5523
  A 10.06 9.55 -177.7 0 1 192.0881 105.6063
  Z
  M 202.0879 101.2002
  A 4.83 2.55 -90.5 0 0 199.5801 106.0523
  A 4.83 2.55 -90.5 0 0 202.1721 110.8598
  A 4.83 2.55 -90.5 0 0 204.6799 106.0077
  A 4.83 2.55 -90.5 0 0 202.0879 101.2002
  Z"
/>
<path fill="#5bb223" d="
  M 255.18 107.80
  A 0.38 0.37 77.8 0 0 254.83 108.33
  C 256.34 111.73 260.28 111.05 262.99 109.43
  A 0.66 0.65 -37.4 0 1 263.80 109.53
  L 266.21 111.93
  A 0.65 0.64 -39.9 0 1 266.12 112.91
  C 258.85 118.06 248.40 116.34 247.72 106.07
  C 246.87 93.38 268.91 92.68 266.27 107.18
  A 0.76 0.76 0.0 0 1 265.52 107.81
  L 255.18 107.80
  Z
  M 255.27 104.19
  L 260.03 104.17
  A 0.25 0.25 0.0 0 0 260.28 103.92
  L 260.28 103.74
  A 2.53 2.43 -0.3 0 0 257.73 101.32
  L 257.53 101.32
  A 2.53 2.43 -0.3 0 0 255.02 103.76
  L 255.02 103.94
  A 0.25 0.25 0.0 0 0 255.27 104.19
  Z"
/>
<path fill="#5bb223" d="
  M 222.25 114.93
  L 222.25 117.08
  A 0.57 0.57 0.0 0 0 222.82 117.65
  L 223.80 117.65
  A 0.41 0.40 0.0 0 1 224.21 118.05
  L 224.21 121.97
  A 0.40 0.40 0.0 0 1 223.81 122.37
  L 213.97 122.37
  A 0.59 0.59 0.0 0 1 213.38 121.78
  L 213.38 118.04
  A 0.41 0.40 6.8 0 1 213.88 117.65
  Q 214.58 117.82 214.86 117.17
  A 0.58 0.54 -33.5 0 0 214.92 116.92
  L 214.92 102.37
  A 0.66 0.62 24.7 0 0 214.74 101.93
  Q 214.39 101.58 213.83 101.61
  A 0.43 0.43 0.0 0 1 213.38 101.18
  L 213.38 97.35
  A 0.43 0.43 0.0 0 1 213.81 96.92
  L 220.92 96.92
  A 1.21 1.19 -22.2 0 1 221.77 97.27
  L 222.18 97.68
  A 0.66 0.65 -37.1 0 0 222.97 97.78
  Q 226.34 95.82 229.82 97.22
  C 239.50 101.11 235.64 119.52 222.94 114.47
  A 0.50 0.50 0.0 0 0 222.25 114.93
  Z
  M 224.7360 101.7310
  A 4.49 2.56 -91.2 0 0 222.2706 106.2736
  A 4.49 2.56 -91.2 0 0 224.9240 110.7090
  A 4.49 2.56 -91.2 0 0 227.3894 106.1664
  A 4.49 2.56 -91.2 0 0 224.7360 101.7310
  Z"
/>
</svg>
