<?xml version="1.0" encoding="UTF-8" standalone="no"?>
<!DOCTYPE svg PUBLIC "-//W3C//DTD SVG 1.1//EN" "http://www.w3.org/Graphics/SVG/1.1/DTD/svg11.dtd">
<svg xmlns="http://www.w3.org/2000/svg" version="1.1" viewBox="0.00 0.00 300.00 150.00">
<path stroke="#add991" stroke-width="2.00" fill="none" stroke-linecap="butt" vector-effect="non-scaling-stroke" d="
  M 44.21 95.53
  Q 41.94 96.14 39.73 95.50"
/>
<path fill="#ffffff" d="
  M 73.67 64.81
  A 0.11 0.11 0.0 0 0 73.75 64.94
  L 73.76 64.94
  A 0.11 0.11 0.0 0 0 73.90 64.86
  L 83.51 30.61
  A 1.66 1.65 -69.8 0 0 82.62 28.66
  L 79.75 27.32
  A 0.20 0.20 0.0 0 1 79.77 26.95
  L 108.37 18.32
  A 0.28 0.28 0.0 0 1 108.71 18.71
  L 85.99 67.43
  A 0.54 0.53 11.8 0 1 85.50 67.75
  L 73.63 67.75
  A 0.90 0.88 76.2 0 1 72.84 67.26
  L 64.88 51.57
  A 1.41 1.39 37.2 0 1 64.75 50.67
  L 68.25 33.03
  A 0.11 0.10 15.6 0 0 68.18 32.91
  A 0.13 0.12 -78.6 0 0 68.05 33.00
  L 58.60 67.50
  A 0.67 0.67 0.0 0 1 57.96 67.98
  L 50.46 67.98
  A 0.83 0.81 -12.5 0 1 49.72 67.52
  L 37.14 41.05
  A 0.34 0.33 68.9 0 1 37.34 40.58
  L 49.69 36.85
  A 0.20 0.20 0.0 0 1 49.89 37.18
  L 48.65 38.42
  A 1.58 1.57 -32.5 0 0 48.28 40.07
  L 57.34 64.76
  A 0.15 0.15 0.0 0 0 57.53 64.85
  L 57.54 64.85
  A 0.15 0.14 73.5 0 0 57.63 64.67
  L 53.07 47.96
  A 2.01 1.95 44.1 0 1 53.04 47.02
  L 55.25 35.85
  A 0.88 0.88 0.0 0 1 55.80 35.21
  L 68.18 30.67
  A 0.60 0.60 0.0 0 1 68.93 30.97
  L 76.90 47.74
  A 1.55 1.51 -52.6 0 1 77.02 48.73
  L 73.67 64.81
  Z"
/>
<path fill="#ffffff" d="
  M 232.70 41.88
  C 233.36 34.82 243.83 36.91 240.11 44.26
  Q 238.87 46.73 236.09 48.70
  A 0.17 0.17 0.0 0 1 235.86 48.44
  C 237.48 46.70 238.24 43.56 236.08 42.05
  Q 234.70 41.09 233.27 42.19
  A 0.35 0.35 0.0 0 1 232.70 41.88
  Z"
/>
<circle fill="#ffffff" cx="213.65" cy="44.25" r="3.74"/>
<path fill="#ffffff" d="
  M 123.22 52.38
  Q 123.46 52.13 124.07 51.04
  C 125.03 49.35 127.86 48.49 129.61 48.64
  C 136.86 49.27 138.12 59.86 134.44 64.62
  C 131.33 68.65 126.23 68.34 123.37 64.20
  A 0.22 0.21 -6.3 0 1 123.63 63.88
  Q 126.19 64.88 127.72 62.46
  Q 130.54 58.02 127.60 53.39
  A 3.02 3.01 -21.5 0 0 124.51 52.05
  Q 122.71 52.38 122.85 54.59
  Q 122.94 55.86 122.78 63.21
  A 2.23 2.18 59.6 0 1 122.54 64.17
  Q 119.91 69.21 114.74 67.01
  A 0.46 0.45 -56.0 0 1 114.60 66.27
  L 114.99 65.88
  A 1.02 0.98 68.2 0 0 115.28 65.17
  L 115.28 44.36
  A 0.16 0.15 0.0 0 1 115.44 44.21
  L 122.80 44.21
  A 0.09 0.09 0.0 0 1 122.89 44.30
  L 122.89 52.24
  A 0.20 0.19 67.2 0 0 123.22 52.38
  Z"
/>
<rect fill="#ffffff" x="145.09" y="44.22" width="7.58" height="23.26" rx="0.27"/>
<path fill="#ffffff" d="
  M 165.12 56.01
  Q 165.08 59.06 164.87 59.94
  C 163.70 64.84 159.63 67.87 154.56 67.46
  A 0.20 0.19 -57.7 0 1 154.48 67.10
  C 158.61 64.68 157.51 61.09 157.59 55.89
  C 157.67 50.69 158.88 47.15 154.82 44.60
  A 0.20 0.19 59.4 0 1 154.91 44.24
  C 159.99 43.98 163.97 47.14 164.99 52.07
  Q 165.17 52.96 165.12 56.01
  Z"
/>
<path fill="#ffffff" d="
  M 103.00 48.60
  A 0.21 0.21 0.0 0 1 103.14 48.99
  C 101.30 50.20 101.70 51.63 101.70 53.50
  C 101.69 57.55 101.67 60.75 105.20 62.62
  Q 109.53 64.92 113.23 61.44
  A 0.18 0.18 0.0 0 1 113.51 61.66
  Q 110.64 66.62 105.27 67.31
  C 92.67 68.94 90.07 50.69 103.00 48.60
  Z"
/>
<path fill="#ffffff" d="
  M 105.49 48.57
  Q 111.00 49.25 113.63 54.70
  A 0.90 0.90 0.0 0 1 112.81 55.99
  L 107.13 55.94
  A 0.64 0.63 -75.5 0 1 106.58 55.00
  Q 106.75 54.70 106.57 50.80
  Q 106.52 49.85 105.32 49.02
  A 0.25 0.25 0.0 0 1 105.49 48.57
  Z"
/>
<path fill="#ffffff" d="
  M 175.17 48.94
  C 173.32 50.16 173.73 51.59 173.74 53.47
  C 173.75 57.54 173.74 60.75 177.29 62.61
  Q 181.64 64.90 185.34 61.39
  A 0.18 0.18 0.0 0 1 185.62 61.61
  Q 182.76 66.60 177.38 67.32
  C 164.74 69.00 162.06 50.70 175.02 48.55
  A 0.21 0.21 0.0 0 1 175.17 48.94
  Z"
/>
<path fill="#ffffff" d="
  M 177.31 49.02
  A 0.25 0.25 0.0 0 1 177.48 48.57
  Q 182.99 49.25 185.62 54.70
  A 0.90 0.90 0.0 0 1 184.81 55.99
  L 179.13 55.94
  A 0.64 0.63 -75.5 0 1 178.58 55.00
  Q 178.75 54.70 178.57 50.80
  Q 178.51 49.85 177.31 49.02
  Z"
/>
<path fill="#ffffff" d="
  M 204.25 53.11
  Q 202.13 49.85 198.21 48.69
  A 0.03 0.03 0.0 0 1 198.22 48.64
  L 203.88 48.64
  A 0.75 0.75 0.0 0 1 204.63 49.39
  L 204.63 53.00
  A 0.21 0.21 0.0 0 1 204.25 53.11
  Z"
/>
<path fill="#ffffff" d="
  M 228.27 58.07
  Q 228.26 64.60 228.33 65.45
  Q 228.38 66.08 229.55 67.12
  A 0.20 0.20 0.0 0 1 229.40 67.47
  C 224.48 67.01 220.73 62.90 220.74 58.06
  C 220.75 53.23 224.50 49.13 229.43 48.68
  A 0.20 0.20 0.0 0 1 229.57 49.03
  Q 228.40 50.07 228.35 50.70
  Q 228.27 51.55 228.27 58.07
  Z"
/>
<path fill="#ffffff" d="
  M 242.89 67.20
  Q 243.24 61.99 243.04 52.90
  Q 243.03 52.33 243.10 51.62
  Q 243.19 50.64 242.37 50.09
  A 0.50 0.50 0.0 0 1 242.49 49.21
  Q 248.37 47.17 250.42 52.41
  A 0.20 0.20 0.0 0 0 250.79 52.41
  C 252.28 48.65 256.47 47.56 259.76 49.72
  Q 262.62 51.60 262.47 56.00
  Q 262.27 61.73 262.63 67.22
  A 0.25 0.25 0.0 0 1 262.38 67.49
  L 255.01 67.49
  A 0.14 0.13 -90.0 0 1 254.88 67.35
  L 254.88 52.98
  A 1.33 1.33 0.0 0 0 253.55 51.65
  L 252.92 51.65
  A 2.28 2.28 0.0 0 0 250.64 53.93
  L 250.64 67.34
  A 0.14 0.14 0.0 0 1 250.50 67.48
  L 243.16 67.48
  A 0.27 0.27 0.0 0 1 242.89 67.20
  Z"
/>
<path fill="#ffffff" d="
  M 199.79 68.26
  A 0.24 0.24 0.0 0 1 199.54 68.04
  L 199.54 68.03
  A 0.09 0.09 0.0 0 1 199.64 67.93
  Q 202.08 67.98 202.80 66.90
  A 1.87 1.65 26.0 0 0 201.74 64.34
  C 195.51 62.10 187.03 60.38 186.83 54.91
  C 186.69 51.08 190.75 49.15 194.12 48.81
  A 0.05 0.05 0.0 0 1 194.15 48.90
  L 192.01 49.92
  A 1.09 1.09 0.0 0 0 191.81 51.76
  Q 193.08 52.75 193.61 52.94
  C 198.15 54.60 203.25 55.98 206.30 58.85
  C 209.01 61.39 208.11 64.89 205.12 66.65
  Q 202.58 68.14 199.79 68.26
  Z"
/>
<path fill="#ffffff" d="
  M 240.71 57.97
  C 240.73 62.80 237.01 66.91 232.09 67.39
  A 0.20 0.20 0.0 0 1 231.94 67.04
  Q 233.11 66.00 233.16 65.37
  Q 233.22 64.52 233.19 58.00
  Q 233.16 51.49 233.09 50.64
  Q 233.03 50.01 231.86 48.98
  A 0.20 0.20 0.0 0 1 232.00 48.63
  C 236.92 49.07 240.68 53.14 240.71 57.97
  Z"
/>
<path fill="#ffffff" d="
  M 213.62 50.21
  Q 215.25 50.21 216.84 49.57
  A 0.40 0.39 79.3 0 1 217.38 49.94
  L 217.47 67.50
  A 0.07 0.07 0.0 0 1 217.33 67.53
  Q 217.31 67.48 213.64 67.49
  Q 209.97 67.49 209.95 67.53
  A 0.07 0.07 0.0 0 1 209.81 67.51
  L 209.87 49.95
  A 0.40 0.39 -79.4 0 1 210.41 49.58
  Q 212.00 50.21 213.62 50.21
  Z"
/>
<path fill="#ffffff" d="
  M 194.08 68.44
  Q 194.04 68.46 186.69 66.40
  A 0.64 0.63 13.4 0 1 186.24 65.67
  L 186.92 62.27
  A 0.22 0.22 0.0 0 1 187.33 62.21
  Q 189.86 67.05 193.80 67.38
  A 0.58 0.58 0.0 0 1 194.08 68.44
  Z"
/>
<path fill="#ffffff" d="
  M 240.80 77.77
  A 0.34 0.34 0.0 0 1 240.18 77.63
  Q 239.78 75.18 237.58 75.39
  Q 236.43 75.50 226.51 77.29
  C 221.70 78.16 217.48 73.47 220.19 68.94
  Q 221.33 67.04 222.79 66.03
  A 0.34 0.33 -16.7 0 1 223.32 66.31
  C 223.20 73.03 235.22 67.26 239.10 68.58
  C 243.53 70.10 243.01 74.60 240.80 77.77
  Z"
/>
<path fill="#ffffff" d="
  M 141.05 81.45
  L 141.05 77.99
  A 0.88 0.87 -75.3 0 0 140.61 77.23
  Q 140.40 77.10 140.36 77.07
  A 0.58 0.57 48.4 0 1 140.41 76.18
  Q 141.06 75.71 141.10 74.99
  C 141.18 73.28 143.17 73.43 144.35 73.69
  A 0.39 0.39 0.0 0 1 144.51 74.38
  Q 143.91 74.86 142.85 74.87
  A 0.41 0.41 0.0 0 0 142.45 75.28
  L 142.45 75.56
  A 0.29 0.28 4.8 0 0 142.69 75.84
  L 143.99 76.10
  A 0.39 0.39 0.0 0 1 144.28 76.62
  Q 144.04 77.27 143.24 77.22
  A 0.64 0.64 0.0 0 0 142.57 77.86
  L 142.57 81.41
  A 0.61 0.61 0.0 0 1 141.96 82.02
  L 141.61 82.02
  A 0.57 0.56 90.0 0 1 141.05 81.45
  Z"
/>
<path fill="#ffffff" d="
  M 44.21 95.53
  Q 41.94 96.14 39.73 95.50
  L 39.63 88.12
  A 2.59 2.56 -63.9 0 0 39.12 86.61
  C 37.87 84.96 37.64 82.91 35.77 81.73
  C 32.87 79.91 29.26 80.98 26.19 82.37
  A 0.58 0.58 0.0 0 1 25.43 81.60
  Q 27.59 76.94 32.70 75.69
  A 1.56 1.39 -48.4 0 1 33.04 75.65
  L 46.25 75.61
  A 2.31 2.27 54.2 0 1 47.01 75.74
  L 49.60 76.60
  A 0.96 0.95 -52.9 0 0 50.46 76.48
  Q 51.89 75.49 54.48 75.81
  A 0.68 0.67 3.3 0 1 55.08 76.48
  L 55.08 81.95
  A 0.73 0.73 0.0 0 1 54.35 82.68
  L 52.05 82.68
  A 1.14 1.14 0.0 0 1 51.20 82.30
  Q 50.37 81.36 49.51 81.32
  Q 43.97 80.99 44.29 86.50
  Q 44.43 88.86 44.21 95.53
  Z"
/>
<path fill="#ffffff" d="
  M 147.7732 75.8402
  A 3.17 2.99 -89.4 0 1 150.7298 79.0413
  A 3.17 2.99 -89.4 0 1 147.7068 82.1798
  A 3.17 2.99 -89.4 0 1 144.7502 78.9787
  A 3.17 2.99 -89.4 0 1 147.7732 75.8402
  Z
  M 147.7136 77.1600
  A 1.83 1.42 -90.2 0 0 146.3000 78.9950
  A 1.83 1.42 -90.2 0 0 147.7264 80.8200
  A 1.83 1.42 -90.2 0 0 149.1400 78.9850
  A 1.83 1.42 -90.2 0 0 147.7136 77.1600
  Z"
/>
<path fill="#ffffff" d="
  M 152.09 81.41
  L 152.09 76.27
  A 0.29 0.29 0.0 0 1 152.54 76.02
  Q 153.42 76.56 155.12 75.95
  A 0.54 0.54 0.0 0 1 155.84 76.46
  L 155.84 76.90
  A 0.50 0.49 -90.0 0 1 155.35 77.40
  L 154.56 77.40
  A 0.90 0.90 0.0 0 0 153.66 78.30
  L 153.66 81.45
  A 0.56 0.56 0.0 0 1 153.10 82.01
  L 152.69 82.01
  A 0.60 0.60 0.0 0 1 152.09 81.41
  Z"
/>
<path fill="#5bb223" d="
  M 99.72 88.76
  A 0.89 0.88 -0.6 0 1 100.61 87.86
  L 107.77 87.86
  A 1.01 1.01 0.0 0 1 108.78 88.87
  L 108.78 109.67
  A 0.70 0.70 0.0 0 0 109.48 110.37
  L 110.07 110.37
  A 0.41 0.41 0.0 0 1 110.48 110.78
  L 110.48 114.58
  A 0.42 0.42 0.0 0 1 110.06 115.00
  L 102.65 115.00
  A 0.98 0.96 73.1 0 1 101.84 114.56
  Q 101.74 114.41 101.65 114.27
  A 0.60 0.60 0.0 0 0 100.84 114.09
  Q 97.08 116.39 93.31 114.42
  C 83.85 109.47 89.39 92.14 100.87 97.61
  A 0.39 0.39 0.0 0 0 101.43 97.26
  L 101.43 93.19
  A 0.59 0.58 -1.0 0 0 100.82 92.61
  Q 100.59 92.62 100.47 92.61
  A 0.75 0.74 2.1 0 1 99.79 91.88
  L 99.72 88.76
  Z
  M 98.7560 101.2610
  A 4.49 2.57 -91.2 0 0 96.2806 105.8038
  A 4.49 2.57 -91.2 0 0 98.9440 110.2390
  A 4.49 2.57 -91.2 0 0 101.4194 105.6962
  A 4.49 2.57 -91.2 0 0 98.7560 101.2610
  Z"
/>
<path fill="#5bb223" d="
  M 255.47 115.00
  L 245.92 115.00
  A 0.53 0.53 0.0 0 1 245.39 114.47
  L 245.39 110.76
  A 0.42 0.41 -84.3 0 1 245.88 110.35
  Q 246.47 110.45 246.84 110.00
  A 0.52 0.51 64.5 0 0 246.95 109.68
  L 246.95 93.24
  A 0.77 0.76 8.8 0 0 246.41 92.51
  Q 246.08 92.41 245.91 92.43
  A 0.47 0.46 -3.3 0 1 245.39 91.97
  L 245.43 88.37
  A 0.49 0.49 0.0 0 1 245.92 87.88
  L 253.23 87.88
  A 0.61 0.61 0.0 0 1 253.84 88.49
  L 253.84 109.61
  A 0.69 0.68 0.0 0 0 254.53 110.29
  L 255.49 110.29
  A 0.46 0.46 0.0 0 1 255.95 110.75
  L 255.95 114.51
  A 0.49 0.48 90.0 0 1 255.47 115.00
  Z"
/>
<path fill="#5bb223" d="
  M 159.41 115.00
  A 0.51 0.51 0.0 0 1 158.90 114.49
  L 158.90 110.66
  A 0.44 0.44 0.0 0 1 159.34 110.22
  L 160.26 110.22
  A 0.66 0.66 0.0 0 0 160.92 109.56
  L 160.92 95.09
  A 0.65 0.65 0.0 0 0 160.27 94.44
  L 159.44 94.44
  A 0.54 0.54 0.0 0 1 158.90 93.90
  L 158.90 90.37
  A 0.63 0.62 -90.0 0 1 159.52 89.74
  Q 169.39 89.61 172.91 89.87
  Q 179.79 90.38 180.51 96.05
  C 181.43 103.25 174.42 105.06 168.89 104.60
  A 0.50 0.50 0.0 0 0 168.34 105.10
  L 168.34 109.71
  A 0.52 0.51 90.0 0 0 168.85 110.23
  L 170.00 110.23
  A 0.57 0.56 90.0 0 1 170.56 110.80
  L 170.56 114.44
  A 0.56 0.56 0.0 0 1 170.00 115.00
  L 159.41 115.00
  Z
  M 168.35 94.86
  L 168.35 100.28
  A 0.42 0.42 0.0 0 0 168.77 100.70
  L 170.17 100.70
  A 3.28 2.92 0.0 0 0 173.45 97.78
  L 173.45 97.36
  A 3.28 2.92 -0.0 0 0 170.17 94.44
  L 168.77 94.44
  A 0.42 0.42 0.0 0 0 168.35 94.86
  Z"
/>
<path fill="#5bb223" d="
  M 44.21 95.53
  Q 45.00 95.96 45.57 96.61
  A 1.28 1.26 25.0 0 1 45.88 97.44
  L 45.88 113.53
  A 3.66 3.66 0.0 0 1 42.22 117.19
  L 41.59 117.19
  A 3.58 3.58 0.0 0 1 38.01 113.61
  L 38.01 97.34
  A 1.08 1.07 71.8 0 1 38.44 96.48
  L 39.73 95.50
  Q 41.94 96.14 44.21 95.53
  Z"
/>
<path fill="#5bb223" d="
  M 60.59 98.66
  C 61.85 97.18 62.52 96.39 64.55 96.04
  A 1.22 1.21 85.2 0 1 65.96 97.24
  L 65.96 101.71
  A 1.03 1.02 -83.3 0 1 64.70 102.71
  Q 62.99 102.30 61.23 104.26
  A 1.41 1.38 -24.5 0 0 60.87 105.19
  L 60.87 109.66
  A 0.64 0.64 0.0 0 0 61.51 110.30
  L 62.10 110.30
  A 0.56 0.55 0.0 0 1 62.66 110.85
  L 62.66 114.41
  A 0.59 0.59 0.0 0 1 62.07 115.00
  L 52.98 115.00
  A 0.59 0.59 0.0 0 1 52.39 114.41
  L 52.39 111.00
  A 0.59 0.59 0.0 0 1 52.97 110.41
  Q 53.83 110.40 53.90 109.47
  Q 54.05 107.42 53.99 102.74
  Q 53.97 101.41 53.13 101.55
  A 0.62 0.62 0.0 0 1 52.41 100.94
  L 52.41 97.64
  A 0.72 0.72 0.0 0 1 53.13 96.92
  L 58.73 96.92
  A 0.77 0.77 0.0 0 1 59.42 97.35
  L 60.01 98.59
  A 0.35 0.34 -37.8 0 0 60.59 98.66
  Z"
/>
<path fill="#5bb223" d="
  M 78.47 113.82
  C 75.05 117.09 68.26 115.88 67.14 111.05
  C 65.75 105.11 72.28 101.54 77.17 103.74
  A 0.59 0.59 0.0 0 0 78.01 103.20
  L 78.01 102.78
  A 1.39 1.37 12.4 0 0 77.20 101.53
  C 75.19 100.63 71.79 100.96 69.72 102.40
  A 0.45 0.45 0.0 0 1 69.04 102.19
  L 67.89 99.05
  A 0.72 0.70 64.4 0 1 68.18 98.20
  Q 73.97 94.62 80.32 96.65
  C 84.17 97.87 85.39 100.63 85.37 104.70
  Q 85.35 109.72 85.34 109.76
  A 0.49 0.48 7.8 0 0 85.81 110.37
  L 87.01 110.37
  A 0.53 0.52 0.6 0 1 87.53 110.89
  L 87.53 114.45
  A 0.55 0.55 0.0 0 1 86.98 115.00
  L 80.31 115.00
  A 0.97 0.97 0.0 0 1 79.40 114.36
  L 79.27 114.00
  A 0.49 0.49 0.0 0 0 78.47 113.82
  Z
  M 78.0693 108.9545
  A 2.17 1.79 -5.7 0 0 75.7322 107.3889
  A 2.17 1.79 -5.7 0 0 73.7507 109.3855
  A 2.17 1.79 -5.7 0 0 76.0878 110.9511
  A 2.17 1.79 -5.7 0 0 78.0693 108.9545
  Z"
/>
<path fill="#5bb223" d="
  M 118.73 107.78
  A 0.38 0.38 0.0 0 0 118.38 108.30
  C 119.66 111.71 123.61 111.04 126.42 109.45
  A 0.77 0.76 52.4 0 1 127.35 109.57
  L 129.68 111.92
  A 0.69 0.68 -40.8 0 1 129.60 112.96
  C 122.60 118.04 111.41 116.17 111.23 106.03
  C 110.99 92.56 132.80 93.50 129.73 107.23
  A 0.74 0.74 0.0 0 1 129.01 107.81
  L 118.73 107.78
  Z
  M 118.75 104.17
  L 123.51 104.17
  A 0.25 0.25 0.0 0 0 123.76 103.92
  L 123.76 103.76
  A 2.54 2.43 0.0 0 0 121.22 101.33
  L 121.04 101.33
  A 2.54 2.43 -0.0 0 0 118.50 103.76
  L 118.50 103.92
  A 0.25 0.25 0.0 0 0 118.75 104.17
  Z"
/>
<path fill="#5bb223" d="
  M 138.96 108.36
  C 136.36 107.59 134.22 107.01 132.45 105.29
  C 130.28 103.19 131.02 99.28 133.35 97.81
  Q 138.17 94.79 142.62 98.52
  A 0.41 0.41 0.0 0 0 143.29 98.20
  L 143.29 97.51
  A 0.59 0.59 0.0 0 1 143.88 96.92
  L 147.50 96.92
  A 0.47 0.46 -0.0 0 1 147.97 97.38
  L 147.97 102.81
  A 0.62 0.62 0.0 0 1 147.35 103.43
  L 144.08 103.43
  A 1.12 1.11 -16.7 0 1 143.15 102.93
  Q 141.53 100.50 138.78 100.98
  A 1.00 1.00 0.0 0 0 138.45 102.82
  Q 139.04 103.17 140.30 103.54
  C 142.89 104.31 145.03 104.89 146.80 106.61
  C 148.97 108.71 148.23 112.62 145.90 114.09
  Q 141.08 117.11 136.63 113.38
  A 0.41 0.41 0.0 0 0 135.96 113.70
  L 135.96 114.39
  A 0.59 0.59 0.0 0 1 135.37 114.98
  L 131.75 114.98
  A 0.47 0.46 -0.0 0 1 131.28 114.52
  L 131.28 109.09
  A 0.62 0.62 0.0 0 1 131.90 108.47
  L 135.17 108.47
  A 1.12 1.11 -16.7 0 1 136.10 108.97
  Q 137.72 111.40 140.47 110.92
  A 1.00 1.00 0.0 0 0 140.81 109.08
  Q 140.21 108.73 138.96 108.36
  Z"
/>
<path fill="#5bb223" d="
  M 188.51 108.31
  C 189.80 111.72 193.75 111.04 196.56 109.44
  A 0.77 0.76 52.2 0 1 197.49 109.56
  L 199.83 111.90
  A 0.69 0.68 -40.9 0 1 199.75 112.94
  C 192.76 118.05 181.56 116.21 181.35 106.06
  C 181.07 92.59 202.90 93.46 199.87 107.21
  A 0.74 0.74 0.0 0 1 199.15 107.79
  L 188.86 107.79
  A 0.38 0.38 0.0 0 0 188.51 108.31
  Z
  M 188.87 104.21
  L 193.66 104.15
  A 0.23 0.23 0.0 0 0 193.89 103.92
  L 193.89 103.78
  A 2.47 2.42 89.4 0 0 191.45 101.34
  L 191.03 101.34
  A 2.47 2.42 89.4 0 0 188.63 103.84
  L 188.63 103.98
  A 0.23 0.23 0.0 0 0 188.87 104.21
  Z"
/>
<path fill="#5bb223" d="
  M 201.0874 105.6238
  A 10.06 9.55 -177.8 0 1 211.5066 96.4670
  A 10.06 9.55 -177.8 0 1 221.1926 106.3962
  A 10.06 9.55 -177.8 0 1 210.7734 115.5530
  A 10.06 9.55 -177.8 0 1 201.0874 105.6238
  Z
  M 211.0879 101.2002
  A 4.83 2.55 -90.5 0 0 208.5801 106.0523
  A 4.83 2.55 -90.5 0 0 211.1721 110.8598
  A 4.83 2.55 -90.5 0 0 213.6799 106.0077
  A 4.83 2.55 -90.5 0 0 211.0879 101.2002
  Z"
/>
<path fill="#5bb223" d="
  M 264.23 107.79
  A 0.38 0.38 0.0 0 0 263.88 108.31
  C 265.17 111.72 269.12 111.04 271.93 109.45
  A 0.77 0.76 52.3 0 1 272.86 109.57
  L 275.19 111.91
  A 0.69 0.68 -40.8 0 1 275.11 112.95
  C 268.12 118.05 256.92 116.19 256.73 106.05
  C 256.47 92.58 278.29 93.48 275.24 107.22
  A 0.74 0.74 0.0 0 1 274.52 107.80
  L 264.23 107.79
  Z
  M 264.27 104.19
  L 269.03 104.17
  A 0.25 0.25 0.0 0 0 269.28 103.92
  L 269.28 103.74
  A 2.53 2.43 -0.3 0 0 266.73 101.32
  L 266.53 101.32
  A 2.53 2.43 -0.3 0 0 264.02 103.76
  L 264.02 103.94
  A 0.25 0.25 0.0 0 0 264.27 104.19
  Z"
/>
<path fill="#5bb223" d="
  M 231.55 114.34
  A 0.30 0.29 -77.0 0 0 231.13 114.61
  L 231.13 117.14
  A 0.51 0.50 0.0 0 0 231.64 117.64
  L 232.62 117.64
  A 0.48 0.47 -90.0 0 1 233.09 118.12
  L 233.09 121.91
  A 0.47 0.47 0.0 0 1 232.62 122.38
  L 222.85 122.38
  A 0.58 0.57 0.0 0 1 222.27 121.81
  L 222.27 118.45
  A 0.82 0.81 86.9 0 1 222.99 117.64
  Q 223.04 117.63 223.24 117.63
  A 0.57 0.56 0.0 0 0 223.81 117.07
  L 223.81 102.34
  A 0.65 0.65 0.0 0 0 223.21 101.69
  Q 222.75 101.65 222.73 101.66
  A 0.42 0.42 0.0 0 1 222.24 101.24
  L 222.29 97.35
  A 0.44 0.44 0.0 0 1 222.73 96.92
  L 229.90 96.92
  A 1.09 1.09 0.0 0 1 230.67 97.24
  L 231.04 97.61
  A 0.79 0.78 50.8 0 0 232.01 97.72
  Q 234.44 96.14 237.64 96.91
  C 245.77 98.86 246.36 112.05 238.64 114.88
  Q 235.20 116.14 231.55 114.34
  Z
  M 233.6081 101.7312
  A 4.49 2.57 -91.3 0 0 231.1407 106.2783
  A 4.49 2.57 -91.3 0 0 233.8119 110.7088
  A 4.49 2.57 -91.3 0 0 236.2793 106.1617
  A 4.49 2.57 -91.3 0 0 233.6081 101.7312
  Z"
/>
</svg>
