<?xml version="1.0" encoding="UTF-8" standalone="no"?>
<!DOCTYPE svg PUBLIC "-//W3C//DTD SVG 1.1//EN" "http://www.w3.org/Graphics/SVG/1.1/DTD/svg11.dtd">
<svg xmlns="http://www.w3.org/2000/svg" version="1.1" viewBox="0.00 0.00 300.00 150.00">
<g stroke-width="2.00" fill="none" stroke-linecap="butt">
<path stroke="#4b7931" vector-effect="non-scaling-stroke" d="
  M 44.26 95.72
  L 38.84 95.78"
/>
<path stroke="#4b7931" vector-effect="non-scaling-stroke" d="
  M 52.53 111.45
  L 52.98 110.52"
/>
</g>
<path fill="#3b3f3f" d="
  M 73.67 64.78
  A 0.11 0.11 0.0 0 0 73.76 64.92
  L 73.77 64.92
  A 0.07 0.07 0.0 0 0 73.86 64.87
  Q 81.87 36.73 83.43 30.71
  Q 84.01 28.50 79.99 27.45
  A 0.29 0.29 0.0 0 1 79.98 26.89
  L 108.45 18.30
  A 0.25 0.25 0.0 0 1 108.75 18.64
  L 86.01 67.39
  A 0.62 0.61 11.8 0 1 85.45 67.75
  L 73.59 67.75
  A 0.83 0.82 76.3 0 1 72.86 67.30
  L 64.89 51.61
  A 1.40 1.40 0.0 0 1 64.77 50.75
  L 68.10 33.42
  A 0.04 0.04 0.0 0 0 68.03 33.39
  Q 68.00 33.41 67.97 33.43
  A 0.23 0.11 -82.4 0 0 67.89 33.55
  L 58.61 67.45
  A 0.73 0.71 7.2 0 1 57.91 67.98
  L 50.47 67.98
  A 0.83 0.81 -12.3 0 1 49.72 67.51
  L 37.18 41.14
  A 0.44 0.43 -21.1 0 1 37.45 40.54
  L 49.68 36.85
  A 0.16 0.16 0.0 0 1 49.84 37.11
  C 48.61 38.37 47.91 39.12 48.65 41.11
  Q 53.27 53.57 57.29 64.65
  A 0.18 0.18 0.0 0 0 57.52 64.76
  L 57.53 64.76
  A 0.17 0.16 73.6 0 0 57.63 64.57
  L 53.12 48.17
  A 2.60 2.51 44.0 0 1 53.08 46.99
  L 55.21 35.89
  A 0.98 0.97 -4.8 0 1 55.84 35.15
  L 68.29 30.67
  A 0.49 0.49 0.0 0 1 68.90 30.92
  L 76.88 47.70
  A 1.66 1.64 -52.3 0 1 77.01 48.77
  L 73.67 64.78
  Z"
/>
<path fill="#3b3f3f" d="
  M 232.53 41.74
  C 232.28 37.77 238.44 35.77 240.22 39.60
  C 241.75 42.92 238.67 46.45 236.12 48.61
  Q 235.97 48.74 235.80 48.72
  A 0.17 0.16 -67.7 0 1 235.69 48.45
  Q 237.79 45.74 236.98 43.58
  Q 235.93 40.76 233.01 42.03
  A 0.35 0.34 -13.4 0 1 232.53 41.74
  Z"
/>
<circle fill="#3b3f3f" cx="213.27" cy="44.25" r="3.72"/>
<path fill="#3b3f3f" d="
  M 114.31 66.19
  L 114.61 65.89
  A 1.04 1.02 67.9 0 0 114.91 65.16
  L 114.91 44.41
  A 0.18 0.18 0.0 0 1 115.09 44.23
  L 122.31 44.23
  A 0.23 0.23 0.0 0 1 122.54 44.46
  L 122.42 63.26
  A 1.80 1.65 61.0 0 1 122.25 63.97
  Q 119.59 69.25 114.46 67.00
  A 0.50 0.50 0.0 0 1 114.31 66.19
  Z"
/>
<rect fill="#3b3f3f" x="-3.78" y="-11.62" transform="translate(148.51,55.87) rotate(-0.1)" width="7.56" height="23.24" rx="0.27"/>
<path fill="#3b3f3f" d="
  M 164.72 55.99
  Q 164.67 59.61 164.35 60.58
  Q 162.12 67.44 154.14 67.58
  A 0.25 0.25 0.0 0 1 154.06 67.09
  C 158.07 65.79 157.14 60.54 157.20 55.89
  C 157.27 51.24 158.34 46.02 154.37 44.60
  A 0.25 0.25 0.0 0 1 154.46 44.12
  Q 162.44 44.48 164.48 51.40
  Q 164.77 52.38 164.72 55.99
  Z"
/>
<path fill="#3b3f3f" d="
  M 102.73 49.01
  Q 101.48 50.27 101.48 50.73
  C 101.40 54.57 100.93 57.85 102.63 60.46
  C 105.09 64.23 109.83 64.40 113.08 61.47
  A 0.18 0.17 86.1 0 1 113.34 61.70
  Q 108.75 68.64 101.32 67.12
  C 91.40 65.08 92.02 50.02 102.56 48.66
  A 0.21 0.21 0.0 0 1 102.73 49.01
  Z"
/>
<path fill="#3b3f3f" d="
  M 106.33 55.41
  C 106.56 53.57 107.03 49.56 104.81 48.96
  A 0.14 0.14 0.0 0 1 104.81 48.69
  Q 105.24 48.58 106.26 48.81
  Q 111.71 49.99 113.66 55.46
  A 0.38 0.38 0.0 0 1 113.30 55.97
  L 106.83 55.97
  A 0.51 0.50 -86.9 0 1 106.33 55.41
  Z"
/>
<path fill="#3b3f3f" d="
  M 204.09 52.94
  Q 201.81 50.06 198.14 48.63
  Q 200.84 48.64 203.53 48.76
  A 0.88 0.87 1.4 0 1 204.37 49.63
  L 204.37 52.85
  A 0.16 0.15 26.3 0 1 204.09 52.94
  Z"
/>
<path fill="#3b3f3f" d="
  M 231.66 48.60
  C 243.08 49.94 243.30 65.79 232.12 67.39
  A 0.34 0.34 0.0 0 1 231.83 66.82
  L 232.82 65.84
  A 0.44 0.40 69.2 0 0 232.94 65.54
  Q 232.97 53.72 232.93 51.65
  C 232.91 50.06 232.62 49.85 231.50 48.99
  A 0.22 0.22 0.0 0 1 231.66 48.60
  Z"
/>
<path fill="#3b3f3f" d="
  M 136.14 58.04
  C 136.15 62.44 133.59 67.20 128.96 67.45
  Q 125.52 67.63 123.20 64.40
  A 0.29 0.29 0.0 0 1 123.51 63.95
  Q 126.67 64.79 128.09 61.24
  Q 128.67 59.80 128.67 58.05
  Q 128.66 56.31 128.08 54.86
  Q 126.65 51.32 123.49 52.17
  A 0.29 0.29 0.0 0 1 123.18 51.72
  Q 125.49 48.48 128.93 48.65
  C 133.56 48.88 136.13 53.64 136.14 58.04
  Z"
/>
<path fill="#3b3f3f" d="
  M 174.41 48.69
  A 0.20 0.20 0.0 0 1 174.58 49.04
  Q 173.34 50.30 173.34 50.76
  C 173.26 54.59 172.80 57.87 174.50 60.47
  C 176.96 64.23 181.70 64.39 184.94 61.46
  A 0.18 0.17 86.0 0 1 185.20 61.69
  Q 180.62 68.63 173.20 67.12
  C 163.29 65.10 163.89 50.06 174.41 48.69
  Z"
/>
<path fill="#3b3f3f" d="
  M 178.06 55.30
  C 178.29 53.48 178.78 49.52 176.59 48.91
  A 0.14 0.14 0.0 0 1 176.59 48.65
  Q 177.01 48.54 178.02 48.77
  Q 183.41 49.97 185.31 55.39
  A 0.38 0.37 -9.8 0 1 184.95 55.89
  L 178.55 55.86
  A 0.50 0.50 0.0 0 1 178.06 55.30
  Z"
/>
<path fill="#3b3f3f" d="
  M 200.46 67.95
  Q 202.12 67.54 202.45 67.09
  A 1.76 1.76 0.0 0 0 201.63 64.40
  Q 193.56 61.45 191.46 60.64
  C 183.39 57.49 186.20 49.07 194.05 48.86
  A 0.02 0.01 31.2 0 1 194.06 48.89
  Q 192.81 49.21 191.64 50.00
  A 1.12 1.12 0.0 0 0 191.50 51.75
  C 193.96 54.06 201.00 54.70 205.58 58.45
  C 210.94 62.83 205.23 67.78 200.46 67.95
  Z"
/>
<path fill="#3b3f3f" d="
  M 227.96 58.09
  C 227.97 62.34 227.39 65.57 229.17 67.04
  A 0.21 0.21 0.0 0 1 229.03 67.40
  C 224.27 67.26 220.54 62.64 220.52 58.10
  C 220.51 53.57 224.22 48.93 228.99 48.77
  A 0.21 0.21 0.0 0 1 229.13 49.13
  C 227.36 50.60 227.95 53.83 227.96 58.09
  Z"
/>
<path fill="#3b3f3f" d="
  M 242.81 67.31
  L 242.81 50.94
  A 0.67 0.67 0.0 0 0 242.42 50.33
  L 242.14 50.20
  A 0.45 0.45 0.0 0 1 242.12 49.39
  C 245.74 47.52 248.32 49.06 250.25 52.18
  A 0.88 0.83 30.4 0 1 250.38 52.63
  L 250.38 67.32
  A 0.18 0.17 -90.0 0 1 250.21 67.50
  L 243.00 67.50
  A 0.19 0.19 0.0 0 1 242.81 67.31
  Z"
/>
<path fill="#3b3f3f" d="
  M 251.04 52.31
  A 0.23 0.23 0.0 0 1 250.71 52.01
  C 253.96 45.60 262.39 48.84 262.21 55.75
  Q 262.04 62.11 262.38 67.23
  A 0.25 0.25 0.0 0 1 262.13 67.50
  L 254.82 67.50
  A 0.17 0.17 0.0 0 1 254.65 67.33
  L 254.65 52.80
  A 1.16 1.16 0.0 0 0 254.11 51.82
  Q 252.84 51.05 251.04 52.31
  Z"
/>
<path fill="#3b3f3f" d="
  M 213.27 50.25
  Q 214.86 50.24 216.51 49.63
  A 0.40 0.40 0.0 0 1 217.05 50.00
  L 217.05 67.06
  A 0.40 0.40 0.0 0 1 216.66 67.46
  Q 216.04 67.47 213.29 67.48
  Q 210.54 67.48 209.92 67.47
  A 0.40 0.40 0.0 0 1 209.53 67.07
  L 209.49 50.01
  A 0.40 0.40 0.0 0 1 210.03 49.64
  Q 211.68 50.25 213.27 50.25
  Z"
/>
<path fill="#3b3f3f" d="
  M 193.87 68.52
  Q 193.86 68.53 186.53 66.50
  A 0.72 0.71 12.7 0 1 186.01 65.68
  L 186.62 62.49
  A 0.26 0.26 0.0 0 1 187.09 62.41
  Q 190.01 67.26 193.42 67.37
  A 0.67 0.67 0.0 0 1 193.87 68.52
  Z"
/>
<path fill="#3b3f3f" d="
  M 239.84 77.58
  Q 239.48 74.90 236.50 75.45
  C 232.49 76.19 224.99 78.25 222.25 76.71
  C 217.45 74.01 218.71 69.01 222.39 66.11
  A 0.32 0.32 0.0 0 1 222.91 66.32
  Q 223.36 69.99 226.81 69.66
  Q 230.83 69.28 235.69 68.51
  C 241.80 67.55 244.21 73.39 240.43 77.76
  A 0.34 0.34 0.0 0 1 239.84 77.58
  Z"
/>
<path fill="#3b3f3f" d="
  M 200.46 67.95
  Q 200.32 68.13 200.09 68.17
  A 0.10 0.10 0.0 0 1 200.05 67.98
  Q 200.24 67.94 200.46 67.95
  Z"
/>
<path fill="#3b3f3f" d="
  M 142.55 81.43
  A 0.54 0.54 0.0 0 1 142.01 81.97
  L 141.45 81.97
  A 0.41 0.40 90.0 0 1 141.05 81.56
  L 141.05 77.98
  A 0.89 0.89 0.0 0 0 140.62 77.22
  Q 140.43 77.10 140.38 77.06
  A 0.53 0.53 0.0 0 1 140.39 76.22
  Q 140.79 75.92 140.85 75.82
  Q 141.07 75.48 141.06 75.18
  C 141.03 73.34 143.28 73.28 144.44 73.79
  A 0.37 0.37 0.0 0 1 144.39 74.48
  L 142.71 74.98
  A 0.41 0.41 0.0 0 0 142.56 75.68
  Q 142.90 75.99 143.87 76.07
  A 0.49 0.49 0.0 0 1 144.23 76.85
  Q 143.95 77.23 143.05 77.27
  A 0.52 0.52 0.0 0 0 142.55 77.79
  L 142.55 81.43
  Z"
/>
<path fill="#3b3f3f" d="
  M 44.26 95.72
  L 38.84 95.78
  Q 40.26 92.17 39.64 87.74
  A 2.13 2.02 -67.9 0 0 39.28 86.82
  Q 38.32 85.47 37.87 84.41
  C 35.71 79.34 30.20 80.49 26.22 82.35
  A 0.61 0.60 0.5 0 1 25.42 81.54
  C 27.56 77.14 30.91 75.51 36.29 75.62
  Q 37.12 75.64 45.61 75.62
  C 47.58 75.61 49.28 77.11 50.93 76.25
  Q 52.56 75.40 54.50 75.85
  A 0.74 0.74 0.0 0 1 55.08 76.57
  L 55.08 81.89
  A 0.66 0.66 0.0 0 1 54.57 82.53
  Q 51.78 83.21 50.73 81.89
  A 1.39 1.37 -16.5 0 0 49.76 81.37
  C 45.92 80.99 44.36 82.48 44.33 86.46
  Q 44.29 91.07 44.26 95.72
  Z"
/>
<path fill="#3b3f3f" d="
  M 147.7465 75.8600
  A 3.15 2.97 -89.7 0 1 150.7000 79.0256
  A 3.15 2.97 -89.7 0 1 147.7135 82.1600
  A 3.15 2.97 -89.7 0 1 144.7600 78.9944
  A 3.15 2.97 -89.7 0 1 147.7465 75.8600
  Z
  M 147.7814 77.1707
  A 1.84 1.43 -88.4 0 0 146.3006 78.9701
  A 1.84 1.43 -88.4 0 0 147.6786 80.8493
  A 1.84 1.43 -88.4 0 0 149.1594 79.0499
  A 1.84 1.43 -88.4 0 0 147.7814 77.1707
  Z"
/>
<path fill="#3b3f3f" d="
  M 153.60 81.49
  A 0.50 0.50 0.0 0 1 153.10 81.96
  L 152.50 81.96
  A 0.40 0.40 0.0 0 1 152.10 81.56
  L 152.10 76.32
  A 0.30 0.30 0.0 0 1 152.53 76.05
  Q 153.62 76.57 155.16 75.99
  A 0.52 0.51 79.6 0 1 155.86 76.48
  L 155.86 76.79
  A 0.55 0.55 0.0 0 1 155.28 77.34
  Q 153.38 77.24 153.65 79.55
  Q 153.69 79.96 153.60 81.49
  Z"
/>
<path fill="#5bb223" d="
  M 99.72 88.76
  A 0.89 0.89 0.0 0 1 100.61 87.86
  L 107.77 87.86
  A 1.02 1.01 -90.0 0 1 108.78 88.88
  L 108.78 109.67
  A 0.70 0.70 0.0 0 0 109.48 110.37
  L 110.07 110.37
  A 0.41 0.41 0.0 0 1 110.48 110.78
  L 110.48 114.58
  A 0.42 0.42 0.0 0 1 110.06 115.00
  L 102.65 115.00
  A 0.98 0.96 73.1 0 1 101.84 114.56
  Q 101.74 114.41 101.65 114.27
  A 0.60 0.60 0.0 0 0 100.84 114.09
  Q 97.08 116.39 93.31 114.42
  C 83.76 109.43 89.56 92.04 100.86 97.60
  A 0.40 0.39 13.2 0 0 101.43 97.25
  L 101.43 93.23
  A 0.63 0.62 -0.9 0 0 100.78 92.61
  Q 100.58 92.61 100.47 92.61
  A 0.75 0.74 2.1 0 1 99.79 91.88
  L 99.72 88.76
  Z
  M 98.7560 101.2610
  A 4.49 2.57 -91.2 0 0 96.2806 105.8038
  A 4.49 2.57 -91.2 0 0 98.9440 110.2390
  A 4.49 2.57 -91.2 0 0 101.4194 105.6962
  A 4.49 2.57 -91.2 0 0 98.7560 101.2610
  Z"
/>
<path fill="#5bb223" d="
  M 255.47 115.00
  L 245.92 115.00
  A 0.53 0.53 0.0 0 1 245.39 114.47
  L 245.39 110.76
  A 0.42 0.41 -84.3 0 1 245.88 110.35
  Q 246.45 110.45 246.82 110.03
  A 0.51 0.48 67.8 0 0 246.95 109.69
  L 246.95 93.24
  A 0.76 0.76 0.0 0 0 246.39 92.51
  Q 246.10 92.42 245.92 92.44
  A 0.47 0.46 -3.8 0 1 245.39 91.98
  L 245.43 88.37
  A 0.49 0.49 0.0 0 1 245.92 87.88
  L 253.23 87.88
  A 0.61 0.61 0.0 0 1 253.84 88.49
  L 253.84 109.61
  A 0.69 0.68 0.0 0 0 254.53 110.29
  L 255.49 110.29
  A 0.47 0.46 -90.0 0 1 255.95 110.76
  L 255.95 114.51
  A 0.49 0.48 90.0 0 1 255.47 115.00
  Z"
/>
<path fill="#5bb223" d="
  M 159.41 115.00
  A 0.51 0.51 0.0 0 1 158.90 114.49
  L 158.90 110.67
  A 0.46 0.45 -0.0 0 1 159.36 110.22
  L 160.28 110.22
  A 0.65 0.65 0.0 0 0 160.93 109.57
  L 160.91 95.01
  A 0.63 0.62 -85.1 0 0 160.40 94.39
  Q 160.18 94.35 159.57 94.48
  A 0.55 0.55 0.0 0 1 158.90 93.94
  L 158.90 90.37
  A 0.64 0.64 0.0 0 1 159.53 89.73
  Q 165.72 89.60 171.96 89.79
  Q 179.40 90.01 180.41 95.50
  C 181.79 103.03 174.72 105.10 168.89 104.60
  A 0.50 0.50 0.0 0 0 168.34 105.10
  L 168.34 109.71
  A 0.52 0.52 0.0 0 0 168.86 110.23
  L 169.99 110.23
  A 0.57 0.57 0.0 0 1 170.56 110.80
  L 170.56 114.44
  A 0.56 0.56 0.0 0 1 170.00 115.00
  L 159.41 115.00
  Z
  M 168.35 94.86
  L 168.35 100.28
  A 0.42 0.42 0.0 0 0 168.77 100.70
  L 170.17 100.70
  A 3.28 2.92 0.0 0 0 173.45 97.78
  L 173.45 97.36
  A 3.28 2.92 -0.0 0 0 170.17 94.44
  L 168.77 94.44
  A 0.42 0.42 0.0 0 0 168.35 94.86
  Z"
/>
<path fill="#5bb223" d="
  M 38.84 95.78
  L 44.26 95.72
  Q 45.85 96.18 45.86 98.02
  Q 45.92 108.94 45.88 113.01
  C 45.85 115.62 45.17 116.75 42.53 117.03
  Q 38.12 117.51 37.90 113.26
  Q 37.40 103.81 38.84 95.78
  Z"
/>
<path fill="#5bb223" d="
  M 52.53 111.45
  L 52.98 110.52
  Q 53.85 110.25 53.90 109.24
  Q 54.12 104.60 53.95 102.49
  Q 53.86 101.39 53.03 101.53
  A 0.53 0.53 0.0 0 1 52.42 101.01
  L 52.42 97.56
  A 0.64 0.64 0.0 0 1 53.06 96.92
  L 58.76 96.92
  A 0.69 0.68 76.6 0 1 59.37 97.30
  L 59.93 98.48
  A 0.47 0.47 0.0 0 0 60.76 98.51
  Q 62.33 95.84 65.69 96.07
  A 0.24 0.24 0.0 0 1 65.92 96.31
  L 65.92 102.39
  A 0.21 0.20 1.4 0 1 65.70 102.59
  C 60.51 102.26 60.73 105.78 60.83 109.56
  A 0.79 0.78 86.5 0 0 61.68 110.32
  Q 61.87 110.30 62.01 110.29
  A 0.59 0.59 0.0 0 1 62.65 110.88
  L 62.65 114.44
  A 0.56 0.56 0.0 0 1 62.09 115.00
  L 53.12 115.00
  A 0.78 0.77 2.0 0 1 52.34 114.17
  L 52.53 111.45
  Z"
/>
<path fill="#5bb223" d="
  M 78.47 113.79
  C 74.76 117.52 67.16 115.50 66.98 109.82
  C 66.80 104.52 72.82 101.59 77.18 103.75
  A 0.58 0.58 0.0 0 0 78.01 103.23
  L 78.01 102.78
  A 1.36 1.34 -77.8 0 0 77.23 101.55
  C 75.23 100.60 71.93 100.98 69.89 102.32
  A 0.63 0.63 0.0 0 1 68.95 102.01
  L 67.93 99.16
  A 0.87 0.87 0.0 0 1 68.30 98.11
  Q 74.07 94.66 80.30 96.63
  C 84.15 97.85 85.39 100.62 85.37 104.70
  Q 85.35 109.72 85.34 109.76
  A 0.49 0.48 7.8 0 0 85.81 110.37
  L 87.01 110.37
  A 0.53 0.52 0.6 0 1 87.53 110.89
  L 87.53 114.45
  A 0.55 0.55 0.0 0 1 86.98 115.00
  L 80.32 115.00
  A 1.01 1.01 0.0 0 1 79.37 114.33
  L 79.23 113.96
  A 0.46 0.46 0.0 0 0 78.47 113.79
  Z
  M 78.0693 108.9545
  A 2.17 1.79 -5.7 0 0 75.7322 107.3889
  A 2.17 1.79 -5.7 0 0 73.7507 109.3855
  A 2.17 1.79 -5.7 0 0 76.0878 110.9511
  A 2.17 1.79 -5.7 0 0 78.0693 108.9545
  Z"
/>
<path fill="#5bb223" d="
  M 118.69 107.79
  A 0.37 0.36 -10.1 0 0 118.34 108.28
  C 119.62 111.79 123.73 110.99 126.66 109.33
  A 0.44 0.43 51.9 0 1 127.18 109.40
  L 129.81 112.06
  A 0.46 0.46 0.0 0 1 129.78 112.74
  C 121.90 119.36 108.30 114.48 111.68 102.75
  C 114.52 92.92 132.12 94.50 129.75 107.20
  A 0.75 0.75 0.0 0 1 129.01 107.82
  L 118.69 107.79
  Z
  M 118.75 104.17
  L 123.51 104.17
  A 0.25 0.25 0.0 0 0 123.76 103.92
  L 123.76 103.76
  A 2.54 2.43 0.0 0 0 121.22 101.33
  L 121.04 101.33
  A 2.54 2.43 -0.0 0 0 118.50 103.76
  L 118.50 103.92
  A 0.25 0.25 0.0 0 0 118.75 104.17
  Z"
/>
<path fill="#5bb223" d="
  M 138.96 108.36
  C 135.55 107.35 131.02 106.17 131.20 101.77
  C 131.43 96.05 139.03 95.13 142.65 98.58
  A 0.37 0.37 0.0 0 0 143.28 98.31
  L 143.28 97.52
  A 0.61 0.60 -0.0 0 1 143.89 96.92
  L 147.50 96.92
  A 0.47 0.46 -0.0 0 1 147.97 97.38
  L 147.97 102.81
  A 0.63 0.62 -0.0 0 1 147.34 103.43
  L 144.00 103.43
  A 1.02 1.00 73.5 0 1 143.15 102.96
  Q 141.59 100.49 138.78 100.98
  A 1.00 1.00 0.0 0 0 138.45 102.82
  Q 139.04 103.17 140.30 103.54
  C 143.71 104.55 148.23 105.73 148.05 110.13
  C 147.82 115.85 140.22 116.77 136.60 113.32
  A 0.37 0.37 0.0 0 0 135.97 113.59
  L 135.97 114.38
  A 0.61 0.60 -0.0 0 1 135.36 114.98
  L 131.75 114.98
  A 0.47 0.46 -0.0 0 1 131.28 114.52
  L 131.28 109.09
  A 0.63 0.62 -0.0 0 1 131.91 108.47
  L 135.25 108.47
  A 1.02 1.00 73.5 0 1 136.10 108.94
  Q 137.66 111.41 140.47 110.92
  A 1.00 1.00 0.0 0 0 140.81 109.08
  Q 140.21 108.73 138.96 108.36
  Z"
/>
<path fill="#5bb223" d="
  M 188.47 108.29
  C 189.76 111.80 193.87 110.99 196.80 109.32
  A 0.45 0.43 51.8 0 1 197.32 109.39
  L 199.96 112.04
  A 0.46 0.46 0.0 0 1 199.93 112.72
  C 192.07 119.37 178.44 114.53 181.79 102.78
  C 184.60 92.93 202.22 94.46 199.89 107.18
  A 0.75 0.75 0.0 0 1 199.15 107.80
  L 188.82 107.80
  A 0.37 0.36 -10.3 0 0 188.47 108.29
  Z
  M 188.87 104.21
  L 193.66 104.15
  A 0.23 0.23 0.0 0 0 193.89 103.92
  L 193.89 103.78
  A 2.47 2.42 89.4 0 0 191.45 101.34
  L 191.03 101.34
  A 2.47 2.42 89.4 0 0 188.63 103.84
  L 188.63 103.98
  A 0.23 0.23 0.0 0 0 188.87 104.21
  Z"
/>
<path fill="#5bb223" d="
  M 201.0874 105.6238
  A 10.06 9.55 -177.8 0 1 211.5066 96.4670
  A 10.06 9.55 -177.8 0 1 221.1926 106.3962
  A 10.06 9.55 -177.8 0 1 210.7734 115.5530
  A 10.06 9.55 -177.8 0 1 201.0874 105.6238
  Z
  M 211.0879 101.2002
  A 4.83 2.55 -90.5 0 0 208.5801 106.0523
  A 4.83 2.55 -90.5 0 0 211.1721 110.8598
  A 4.83 2.55 -90.5 0 0 213.6799 106.0077
  A 4.83 2.55 -90.5 0 0 211.0879 101.2002
  Z"
/>
<path fill="#5bb223" d="
  M 264.19 107.80
  A 0.37 0.36 -10.2 0 0 263.84 108.29
  C 265.13 111.80 269.24 110.99 272.17 109.33
  A 0.45 0.43 51.8 0 1 272.69 109.40
  L 275.32 112.05
  A 0.46 0.46 0.0 0 1 275.29 112.73
  C 267.43 119.37 253.81 114.51 257.17 102.77
  C 260.00 92.93 277.61 94.48 275.26 107.19
  A 0.75 0.75 0.0 0 1 274.52 107.81
  L 264.19 107.80
  Z
  M 264.27 104.19
  L 269.03 104.17
  A 0.25 0.25 0.0 0 0 269.28 103.92
  L 269.28 103.74
  A 2.53 2.43 -0.3 0 0 266.73 101.32
  L 266.53 101.32
  A 2.53 2.43 -0.3 0 0 264.02 103.76
  L 264.02 103.94
  A 0.25 0.25 0.0 0 0 264.27 104.19
  Z"
/>
<path fill="#5bb223" d="
  M 231.52 114.36
  A 0.28 0.27 11.9 0 0 231.13 114.61
  L 231.13 117.14
  A 0.50 0.50 0.0 0 0 231.63 117.64
  L 232.59 117.64
  A 0.51 0.51 0.0 0 1 233.10 118.15
  L 233.10 121.76
  A 0.63 0.63 0.0 0 1 232.47 122.39
  L 222.88 122.39
  A 0.61 0.61 0.0 0 1 222.27 121.78
  L 222.27 118.48
  A 0.85 0.84 85.7 0 1 222.98 117.64
  Q 223.00 117.64 223.27 117.63
  A 0.56 0.56 0.0 0 0 223.81 117.07
  L 223.81 102.36
  A 0.68 0.67 2.8 0 0 223.20 101.69
  Q 222.78 101.65 222.71 101.66
  A 0.40 0.40 0.0 0 1 222.24 101.26
  L 222.29 97.32
  A 0.41 0.41 0.0 0 1 222.70 96.92
  L 229.87 96.92
  A 1.24 1.22 69.8 0 1 230.81 97.36
  Q 230.96 97.54 231.00 97.58
  A 0.74 0.74 0.0 0 0 231.87 97.73
  C 237.31 94.95 242.86 98.03 243.85 103.91
  C 245.17 111.70 239.44 117.90 231.52 114.36
  Z
  M 233.6081 101.7312
  A 4.49 2.57 -91.3 0 0 231.1407 106.2783
  A 4.49 2.57 -91.3 0 0 233.8119 110.7088
  A 4.49 2.57 -91.3 0 0 236.2793 106.1617
  A 4.49 2.57 -91.3 0 0 233.6081 101.7312
  Z"
/>
<path fill="#3b3f3f" d="
  M 52.98 110.52
  L 52.53 111.45
  Q 52.23 110.91 52.54 110.57
  Q 52.74 110.34 52.98 110.52
  Z"
/>
</svg>
